<svg version="1.1" id="Layer_1" xmlns="http://www.w3.org/2000/svg" xmlns:xlink="http://www.w3.org/1999/xlink" x="0px" y="0px"
	 width="100%" viewBox="0 0 475 475" enable-background="new 0 0 475 475" xml:space="preserve">
<path fill="#4C6971" opacity="1.000000" stroke="none" 
	d="
M219.000000,476.000000 
	C146.019073,476.000000 73.538147,476.000000 1.028612,476.000000 
	C1.028612,317.727417 1.028612,159.454803 1.028612,1.091097 
	C159.230896,1.091097 317.461884,1.091097 475.846436,1.091097 
	C475.846436,159.333221 475.846436,317.666595 475.846436,476.000000 
	C390.454834,476.000000 304.977417,476.000000 219.000000,476.000000 
M130.440628,249.935532 
	C129.613449,250.612091 128.786255,251.288666 127.999855,252.000076 
	C127.999855,252.000076 127.963722,251.960938 127.335266,252.252106 
	C125.630432,255.750565 123.318169,259.089630 122.349457,262.781250 
	C120.436981,270.069336 126.134979,280.986786 133.110992,282.489685 
	C142.708298,284.557404 149.409164,284.034760 154.126450,275.086487 
	C155.611496,272.269409 156.111206,268.864563 156.708481,265.662811 
	C157.775696,259.941833 153.149216,251.809830 148.001740,249.997421 
	C148.001740,249.997421 148.011887,249.974319 147.648972,249.377243 
	C146.103287,249.016495 144.557587,248.655731 142.330261,248.161819 
	C141.867493,248.151627 141.404739,248.141418 140.511826,247.860855 
	C139.693878,247.938889 138.875916,248.016907 137.366440,248.086044 
	C136.911652,248.155243 136.456863,248.224442 135.296143,248.158936 
	C133.848160,248.750793 132.400177,249.342651 130.994629,249.997070 
	C130.994629,249.997070 130.940887,249.941483 130.440628,249.935532 
M170.344376,194.727386 
	C170.730591,195.023987 171.210297,195.252075 171.486679,195.629166 
	C172.630081,197.189194 171.350922,201.236191 175.046356,199.866989 
	C176.136810,199.462936 176.131302,196.020279 176.552048,193.954636 
	C176.640823,193.518875 176.396759,193.015320 176.250351,192.253036 
	C174.842270,192.160782 173.417938,192.067459 171.999298,191.189423 
	C172.077423,190.410858 172.155548,189.632278 172.985596,188.865372 
	C174.358185,188.373840 175.730759,187.882309 177.854935,187.498123 
	C185.656479,189.861343 185.656479,189.861343 186.912994,194.425247 
	C187.303482,194.961899 187.693970,195.498535 187.961517,195.992172 
	C187.961517,195.992172 188.004456,195.869202 188.182358,196.524063 
	C188.954147,198.689316 189.555603,200.935074 190.533020,203.003159 
	C192.595016,207.366119 194.853790,211.636078 197.126358,216.694153 
	C197.961960,218.545593 198.797562,220.397034 199.591415,222.829605 
	C200.241730,227.404114 202.873276,229.108871 207.443039,228.853714 
	C215.623154,228.397003 223.821686,228.270279 232.733505,228.406113 
	C233.874329,228.596939 235.014923,228.952621 236.156021,228.954300 
	C259.951233,228.989120 283.746490,228.998688 307.541626,228.950211 
	C308.993744,228.947250 310.444824,228.421906 312.599060,228.157776 
	C314.027130,228.618225 315.455200,229.078690 316.883240,229.539139 
	C316.790558,230.033142 316.697876,230.527130 316.605194,231.021133 
	C314.680847,231.021133 312.756531,231.021118 310.832184,231.021133 
	C279.692535,231.021332 248.552902,231.017014 217.413254,231.031509 
	C215.252502,231.032516 213.085144,231.090424 210.932220,231.263306 
	C200.355652,232.112671 199.717331,234.248749 195.024017,223.178482 
	C194.471588,221.875458 193.487335,220.755508 192.703278,219.550705 
	C192.565948,223.990234 193.426346,228.269394 193.976776,232.588089 
	C194.397598,235.889832 195.965164,236.912308 199.274490,236.910370 
	C240.902573,236.886047 282.530731,237.001251 324.158905,237.050476 
	C325.691864,237.052277 327.225220,236.744141 329.464874,236.504990 
	C327.824036,233.458038 326.620178,231.222519 325.188721,228.564377 
	C330.581909,228.260788 335.420502,227.988419 341.143921,227.666245 
	C339.044006,223.320999 337.295410,219.702637 335.193390,215.352997 
	C337.859222,215.200760 340.010864,215.364990 341.975433,214.835327 
	C342.857361,214.597534 343.365021,212.971558 343.868805,211.354172 
	C343.499786,210.581436 343.130768,209.808701 342.585968,208.353104 
	C338.180542,200.484589 333.895599,192.545151 329.322205,184.775497 
	C326.778595,180.454224 323.754120,176.415985 320.019165,172.168777 
	C305.024323,172.108200 290.029449,172.047623 275.119751,171.255600 
	C277.476471,166.715424 276.868042,163.288467 271.841827,160.908340 
	C270.223022,160.141754 269.175476,158.168777 268.816010,156.846237 
	C281.865631,156.829208 294.915253,156.812164 308.646729,156.903152 
	C311.656616,157.192017 312.767151,156.110626 311.096954,153.299973 
	C310.194977,151.782089 309.062866,150.400940 308.004486,149.002884 
	C308.004486,149.002884 308.047699,148.969376 307.771759,148.296036 
	C305.210724,147.205383 302.662537,145.205444 300.086639,145.169159 
	C280.976746,144.900040 261.861267,144.998047 242.747635,145.026001 
	C222.816864,145.055145 202.885620,145.068497 182.955841,145.237701 
	C177.756241,145.281860 172.561356,145.880341 166.851334,146.438995 
	C164.926346,148.648361 162.481613,150.591202 161.183716,153.122147 
	C158.413818,158.523529 156.238388,164.229721 153.338837,170.071762 
	C145.859772,184.424530 138.380692,198.777313 130.318207,214.249710 
	C134.607605,214.904053 137.751495,215.383636 141.068649,216.639954 
	C140.979797,217.464325 140.720139,218.314758 140.841125,219.107086 
	C141.034790,220.375305 141.480927,221.604950 141.820328,222.850906 
	C143.046768,222.227997 144.385483,221.749893 145.453049,220.922089 
	C146.000153,220.497833 146.092850,219.457993 146.339157,218.679977 
	C148.532990,211.750412 150.715256,204.817169 153.352371,198.498184 
	C153.286728,201.505829 153.221085,204.513489 153.015686,208.358795 
	C151.229324,213.824509 149.327271,219.257156 147.747391,224.781921 
	C147.402573,225.987747 148.208649,227.522690 148.484680,228.906052 
	C149.694519,227.896957 151.680344,227.076477 151.979446,225.845993 
	C153.251938,220.610672 154.024902,215.253952 155.311661,209.294083 
	C156.821259,202.816437 158.330841,196.338806 159.862549,189.845901 
	C159.862549,189.845901 159.860580,189.819092 160.780655,189.774490 
	C163.253448,189.790970 165.726257,189.807465 168.128387,190.443756 
	C168.145966,190.650955 168.163559,190.858139 167.735306,191.638596 
	C163.474915,192.418671 164.648743,195.745728 164.957138,198.292831 
	C165.055801,199.107834 167.036148,199.695023 168.524673,200.614441 
	C168.969513,197.978149 169.239090,196.380646 170.344376,194.727386 
M189.210037,252.650894 
	C181.751724,245.748169 168.998611,246.097534 163.041367,253.453003 
	C158.468643,259.098969 157.994278,265.555969 160.232803,272.152283 
	C162.084030,277.607330 165.689575,282.072662 171.658295,282.766876 
	C178.495255,283.562164 185.671768,284.180328 190.029846,276.609772 
	C194.611038,268.651642 194.042786,260.935120 189.210037,252.650894 
M198.148361,264.967590 
	C198.151474,269.622864 198.204163,274.278809 198.138046,278.933105 
	C198.101761,281.487396 198.789841,282.982697 201.768997,283.005737 
	C204.657455,283.028107 206.578979,282.004730 206.134125,279.076843 
	C205.353943,273.941986 208.266663,270.786499 211.830597,267.182373 
	C214.243011,270.765656 217.000092,274.043854 218.827194,277.777161 
	C221.226898,282.680603 224.580185,284.073853 230.268250,282.183411 
	C229.332993,280.356171 228.620041,278.597046 227.598877,277.040070 
	C225.017899,273.104706 222.404114,269.181366 219.591919,265.410980 
	C218.072479,263.373840 217.761078,261.952484 219.672195,259.843170 
	C222.786118,256.406311 225.472473,252.582062 228.479492,248.742233 
	C223.820801,247.207962 221.024780,248.896255 218.294022,251.865585 
	C214.859329,255.600311 210.956421,258.904449 206.685242,262.932159 
	C206.309631,258.389923 206.364883,254.692978 205.526672,251.211136 
	C205.219711,249.936035 202.862228,248.577118 201.309494,248.399658 
	C200.403198,248.296066 198.450790,250.378616 198.333801,251.607529 
	C197.941452,255.729462 198.162552,259.909790 198.148361,264.967590 
M94.418480,250.743286 
	C94.337509,256.812469 94.196129,262.881561 94.187042,268.950867 
	C94.161209,286.211151 91.940994,282.622711 108.348946,282.850342 
	C117.786942,282.981323 122.152420,275.107635 117.872047,266.762299 
	C117.038696,265.137543 116.528412,262.730560 117.094009,261.112549 
	C119.420532,254.457214 116.359962,248.798721 109.390289,248.201965 
	C105.426468,247.862579 101.398323,248.065750 97.415169,248.298676 
	C96.335861,248.361786 95.314873,249.422409 94.418480,250.743286 
z"/>
<path fill="#1FA2C5" opacity="1.000000" stroke="none" 
	d="
M275.034607,171.987061 
	C290.029449,172.047623 305.024323,172.108200 320.539734,172.559326 
	C321.497162,174.188950 321.758179,175.528259 322.398499,176.651337 
	C327.864685,186.238724 333.345093,195.819260 338.971466,205.312790 
	C339.844208,206.785400 341.479248,207.806229 342.761749,209.035980 
	C343.130768,209.808701 343.499786,210.581436 343.570679,211.802917 
	C341.303497,212.513672 339.341583,212.882507 337.363861,213.015244 
	C333.334717,213.285675 332.437622,215.213486 334.193878,218.661331 
	C335.212585,220.661270 336.273468,222.639740 337.772980,225.501083 
	C334.344604,225.713959 331.943024,225.950394 329.538025,225.992050 
	C325.887360,226.055298 322.498322,226.101471 324.339233,231.492615 
	C324.609436,232.283920 323.395233,233.582092 322.867828,234.645752 
	C321.839447,234.106735 319.949493,233.618454 319.914276,233.020950 
	C319.504730,226.066055 314.754578,225.967255 309.598907,225.975723 
	C275.988922,226.030869 242.378799,225.986313 208.768784,226.030289 
	C205.127823,226.035049 201.740189,225.782349 199.633163,222.248474 
	C198.797562,220.397034 197.961960,218.545593 197.218002,216.073792 
	C198.088379,214.987808 198.867126,214.522171 199.743225,214.120651 
	C199.840561,214.184769 199.992874,214.361267 200.065460,214.453735 
	C200.138031,214.546204 200.480713,214.852875 200.649689,215.166840 
	C201.535355,216.676682 202.252060,217.872559 203.026825,219.376099 
	C203.717712,220.457123 204.350571,221.230453 204.994751,222.000092 
	C205.006088,221.996414 204.995483,222.018143 205.116699,222.257050 
	C206.146805,222.693207 207.055710,222.890457 208.293228,223.059784 
	C209.061005,223.009567 209.500153,222.987244 210.220032,222.970810 
	C210.687881,222.972366 210.875015,222.968063 211.286743,222.952103 
	C211.511322,222.940460 211.959946,222.908325 212.331268,223.100800 
	C214.835007,223.534149 216.967209,223.982483 219.099884,223.984894 
	C254.052002,224.024460 289.004181,224.008896 323.956329,223.999512 
	C325.286957,223.999161 326.623688,224.005890 327.947052,223.889572 
	C331.200500,223.603653 331.808136,221.933685 330.517151,219.090439 
	C328.607910,214.885620 325.764557,212.892029 320.829071,212.917084 
	C286.876404,213.089462 252.922394,213.034698 218.969025,212.958725 
	C215.675339,212.951355 212.383087,212.303406 209.061813,211.963165 
	C209.033447,211.973526 209.052567,211.916229 208.985153,211.609436 
	C208.273209,210.537598 207.628677,209.772537 206.793457,208.812500 
	C206.380615,208.122269 206.158478,207.627014 205.869217,206.775452 
	C203.934784,203.587509 202.067474,200.755844 200.163635,197.902802 
	C200.127075,197.881439 200.104691,197.799759 200.033417,197.510391 
	C199.375153,196.455948 198.788162,195.690872 198.150421,194.896225 
	C198.099640,194.866653 198.040756,194.764969 197.968414,194.667191 
	C197.896057,194.569412 197.579544,194.213669 197.371368,193.884369 
	C196.604095,193.015991 196.045013,192.476898 195.571472,191.798798 
	C195.657028,191.659775 195.897842,191.439331 195.795013,191.181519 
	C195.492737,190.613449 195.293259,190.303192 194.868668,189.731781 
	C186.715393,176.776093 178.787262,164.081543 170.877975,151.053329 
	C171.441818,146.739639 174.614151,148.054245 176.792984,148.050125 
	C217.743347,147.972580 258.693939,147.974625 299.644379,148.036118 
	C302.445953,148.040329 305.246613,148.644318 308.047699,148.969376 
	C308.047699,148.969376 308.004486,149.002884 308.027802,149.355728 
	C308.022369,152.070755 307.993622,154.432938 307.964874,156.795120 
	C294.915253,156.812164 281.865631,156.829208 268.095184,156.724548 
	C265.252838,158.530609 265.147064,158.689453 268.104126,160.658401 
	C271.560303,162.959686 274.590912,165.275208 273.636810,170.136810 
	C273.537537,170.642624 274.542145,171.365112 275.034607,171.987061 
z"/>
<path fill="#2999B8" opacity="1.000000" stroke="none" 
	d="
M199.612289,222.539032 
	C201.740189,225.782349 205.127823,226.035049 208.768784,226.030289 
	C242.378799,225.986313 275.988922,226.030869 309.598907,225.975723 
	C314.754578,225.967255 319.504730,226.066055 319.914276,233.020950 
	C319.949493,233.618454 321.839447,234.106735 322.867828,234.645752 
	C323.395233,233.582092 324.609436,232.283920 324.339233,231.492615 
	C322.498322,226.101471 325.887360,226.055298 329.538025,225.992050 
	C331.943024,225.950394 334.344604,225.713959 337.772980,225.501083 
	C336.273468,222.639740 335.212585,220.661270 334.193878,218.661331 
	C332.437622,215.213486 333.334717,213.285675 337.363861,213.015244 
	C339.341583,212.882507 341.303497,212.513672 343.657532,212.113586 
	C343.365021,212.971558 342.857361,214.597534 341.975433,214.835327 
	C340.010864,215.364990 337.859222,215.200760 335.193390,215.352997 
	C337.295410,219.702637 339.044006,223.320999 341.143921,227.666245 
	C335.420502,227.988419 330.581909,228.260788 325.188721,228.564377 
	C326.620178,231.222519 327.824036,233.458038 329.464874,236.504990 
	C327.225220,236.744141 325.691864,237.052277 324.158905,237.050476 
	C282.530731,237.001251 240.902573,236.886047 199.274490,236.910370 
	C195.965164,236.912308 194.397598,235.889832 193.976776,232.588089 
	C193.426346,228.269394 192.565948,223.990234 192.703278,219.550705 
	C193.487335,220.755508 194.471588,221.875458 195.024017,223.178482 
	C199.717331,234.248749 200.355652,232.112671 210.932220,231.263306 
	C213.085144,231.090424 215.252502,231.032516 217.413254,231.031509 
	C248.552902,231.017014 279.692535,231.021332 310.832184,231.021133 
	C312.756531,231.021118 314.680847,231.021133 316.605194,231.021133 
	C316.697876,230.527130 316.790558,230.033142 316.883240,229.539139 
	C315.455200,229.078690 314.027130,228.618225 311.787354,228.104813 
	C284.654602,228.036438 258.333557,228.021027 232.012527,228.005630 
	C223.821686,228.270279 215.623154,228.397003 207.443039,228.853714 
	C202.873276,229.108871 200.241730,227.404114 199.612289,222.539032 
z"/>
<path fill="#081922" opacity="1.000000" stroke="none" 
	d="
M195.897842,191.439331 
	C195.897842,191.439331 195.657028,191.659775 195.289444,191.801697 
	C193.951950,192.814407 192.982040,193.685226 191.759247,194.425232 
	C190.339066,194.819351 189.171753,195.344269 188.004456,195.869202 
	C188.004456,195.869202 187.961517,195.992172 188.064117,195.620392 
	C187.604218,194.805252 187.041702,194.361923 186.479187,193.918579 
	C185.656479,189.861343 185.656479,189.861343 177.449921,187.110077 
	C177.007172,185.892441 176.836365,185.042755 176.957916,184.237198 
	C177.262543,182.217911 177.869095,180.208054 174.638382,180.119339 
	C171.678101,180.038040 170.767990,181.658554 171.077225,184.205719 
	C171.268173,185.778671 171.835403,187.305939 172.233688,188.853714 
	C172.155548,189.632278 172.077423,190.410858 171.704010,191.789154 
	C170.871445,193.046890 170.334137,193.704880 169.583221,194.125916 
	C168.973465,192.947769 168.577316,192.006561 168.181168,191.065338 
	C168.163559,190.858139 168.145966,190.650955 168.342758,190.000366 
	C168.766632,189.308929 168.853378,189.023422 168.890167,188.280487 
	C168.962952,185.453369 168.962952,183.046265 168.962952,180.470459 
	C167.133896,180.470459 165.785507,180.470459 163.965240,180.470459 
	C164.090027,182.859207 164.198120,184.928421 164.013077,187.162689 
	C162.433487,188.158188 161.147034,188.988632 159.860565,189.819092 
	C159.860580,189.819092 159.862549,189.845901 159.617981,190.032562 
	C156.286865,192.597702 154.906998,191.070892 153.672791,188.062546 
	C153.093369,186.650284 151.517395,185.646881 150.420807,183.969574 
	C151.572174,178.924301 152.695786,174.367676 153.819397,169.811035 
	C156.238388,164.229721 158.413818,158.523529 161.183716,153.122147 
	C162.481613,150.591202 164.926346,148.648361 167.279022,146.560852 
	C168.757523,148.250809 169.808319,149.818909 170.859116,151.387009 
	C178.787262,164.081543 186.715393,176.776093 194.896683,190.021912 
	C195.399155,190.861908 195.648499,191.150620 195.897842,191.439331 
z"/>
<path fill="#E43638" opacity="1.000000" stroke="none" 
	d="
M189.399948,252.935455 
	C194.042786,260.935120 194.611038,268.651642 190.029846,276.609772 
	C185.671768,284.180328 178.495255,283.562164 171.658295,282.766876 
	C165.689575,282.072662 162.084030,277.607330 160.232803,272.152283 
	C157.994278,265.555969 158.468643,259.098969 163.041367,253.453003 
	C168.998611,246.097534 181.751724,245.748169 189.399948,252.935455 
M170.126297,256.538055 
	C169.269608,258.316315 167.928497,260.019653 167.639938,261.885773 
	C166.374664,270.068481 168.479660,277.269318 177.804245,276.105042 
	C181.994553,275.581848 185.202408,272.748627 185.675369,267.414551 
	C186.086731,262.775360 185.647583,257.842194 181.081131,255.097748 
	C177.664429,253.044296 173.870544,252.709671 170.126297,256.538055 
z"/>
<path fill="#DF3739" opacity="1.000000" stroke="none" 
	d="
M198.148590,264.517700 
	C198.162552,259.909790 197.941452,255.729462 198.333801,251.607529 
	C198.450790,250.378616 200.403198,248.296066 201.309494,248.399658 
	C202.862228,248.577118 205.219711,249.936035 205.526672,251.211136 
	C206.364883,254.692978 206.309631,258.389923 206.685242,262.932159 
	C210.956421,258.904449 214.859329,255.600311 218.294022,251.865585 
	C221.024780,248.896255 223.820801,247.207962 228.479492,248.742233 
	C225.472473,252.582062 222.786118,256.406311 219.672195,259.843170 
	C217.761078,261.952484 218.072479,263.373840 219.591919,265.410980 
	C222.404114,269.181366 225.017899,273.104706 227.598877,277.040070 
	C228.620041,278.597046 229.332993,280.356171 230.268250,282.183411 
	C224.580185,284.073853 221.226898,282.680603 218.827194,277.777161 
	C217.000092,274.043854 214.243011,270.765656 211.830597,267.182373 
	C208.266663,270.786499 205.353943,273.941986 206.134125,279.076843 
	C206.578979,282.004730 204.657455,283.028107 201.768997,283.005737 
	C198.789841,282.982697 198.101761,281.487396 198.138046,278.933105 
	C198.204163,274.278809 198.151474,269.622864 198.148590,264.517700 
z"/>
<path fill="#E83637" opacity="1.000000" stroke="none" 
	d="
M94.342804,250.384247 
	C95.314873,249.422409 96.335861,248.361786 97.415169,248.298676 
	C101.398323,248.065750 105.426468,247.862579 109.390289,248.201965 
	C116.359962,248.798721 119.420532,254.457214 117.094009,261.112549 
	C116.528412,262.730560 117.038696,265.137543 117.872047,266.762299 
	C122.152420,275.107635 117.786942,282.981323 108.348946,282.850342 
	C91.940994,282.622711 94.161209,286.211151 94.187042,268.950867 
	C94.196129,262.881561 94.337509,256.812469 94.342804,250.384247 
M102.375839,261.517700 
	C104.581795,261.410431 106.787750,261.303162 109.674049,260.849548 
	C111.938026,256.606781 110.883003,254.311935 106.436356,253.967438 
	C104.986557,253.855103 103.517128,253.996262 101.477730,254.411377 
	C99.440117,256.789917 99.479576,258.990814 101.998726,261.000946 
	C101.998726,261.000946 102.023987,260.960815 102.375839,261.517700 
M110.810387,274.695984 
	C111.235329,273.171753 112.467209,270.790894 111.931602,270.286316 
	C110.416451,268.859039 108.267639,267.797791 106.201904,267.333771 
	C103.143867,266.646820 101.760216,268.234070 101.862885,271.477814 
	C101.950798,274.255219 102.113075,276.520996 105.800339,275.853638 
	C107.238625,275.593323 108.672607,275.309174 110.810387,274.695984 
z"/>
<path fill="#EE3535" opacity="1.000000" stroke="none" 
	d="
M136.002075,248.293625 
	C136.456863,248.224442 136.911652,248.155243 137.937439,248.207092 
	C139.319611,248.262497 140.130783,248.196854 140.941971,248.131210 
	C141.404739,248.141418 141.867493,248.151627 142.920883,248.450226 
	C145.011627,249.150513 146.511765,249.562424 148.011887,249.974319 
	C148.011887,249.974319 148.001740,249.997421 148.181488,250.280090 
	C152.362335,254.465973 154.376038,259.204620 154.590271,264.798737 
	C154.956558,274.363159 149.371872,280.823639 140.402374,281.060730 
	C130.377472,281.325714 124.743622,276.101288 125.080948,265.878479 
	C125.234909,261.212677 126.954323,256.598511 127.963730,251.960938 
	C127.963722,251.960938 127.999855,252.000076 128.295517,251.931473 
	C129.374420,251.222412 130.157654,250.581940 130.940887,249.941483 
	C130.940887,249.941483 130.994629,249.997070 131.322800,249.972717 
	C133.101334,249.396790 134.551712,248.845215 136.002075,248.293625 
M145.453033,274.149658 
	C149.717819,269.121643 150.317291,264.343597 147.395691,258.665863 
	C145.377472,254.743683 140.753403,252.205460 136.599960,254.254929 
	C134.047363,255.514481 132.552917,259.233124 131.014725,262.080597 
	C130.389755,263.237549 131.108292,265.044800 130.875641,266.501892 
	C129.687439,273.944183 136.824280,278.950653 145.453033,274.149658 
z"/>
<path fill="#2999B8" opacity="1.000000" stroke="none" 
	d="
M170.877975,151.053329 
	C169.808319,149.818909 168.757523,148.250809 167.535522,146.453476 
	C172.561356,145.880341 177.756241,145.281860 182.955841,145.237701 
	C202.885620,145.068497 222.816864,145.055145 242.747635,145.026001 
	C261.861267,144.998047 280.976746,144.900040 300.086639,145.169159 
	C302.662537,145.205444 305.210724,147.205383 307.909729,148.632706 
	C305.246613,148.644318 302.445953,148.040329 299.644379,148.036118 
	C258.693939,147.974625 217.743347,147.972580 176.792984,148.050125 
	C174.614151,148.054245 171.441818,146.739639 170.877975,151.053329 
z"/>
<path fill="#E83637" opacity="1.000000" stroke="none" 
	d="
M153.579117,169.941406 
	C152.695786,174.367676 151.572174,178.924301 150.264862,184.089874 
	C147.653946,192.376724 145.226746,200.054626 142.722565,207.799927 
	C142.645569,207.867340 142.573090,208.056671 142.441910,208.147003 
	C142.199036,208.595840 142.329453,208.836334 142.605042,209.335770 
	C142.313751,211.153488 142.119370,212.594254 141.973236,214.024384 
	C142.021500,214.013748 142.000244,213.917221 141.663681,214.057480 
	C141.186539,214.794846 141.045959,215.391937 140.934418,215.955078 
	C140.963455,215.921127 140.895386,215.863235 140.895386,215.863235 
	C137.751495,215.383636 134.607605,214.904053 130.318207,214.249710 
	C138.380692,198.777313 145.859772,184.424530 153.579117,169.941406 
z"/>
<path fill="#D2393C" opacity="1.000000" stroke="none" 
	d="
M127.649498,252.106522 
	C126.954323,256.598511 125.234909,261.212677 125.080948,265.878479 
	C124.743622,276.101288 130.377472,281.325714 140.402374,281.060730 
	C149.371872,280.823639 154.956558,274.363159 154.590271,264.798737 
	C154.376038,259.204620 152.362335,254.465973 148.191376,250.273026 
	C153.149216,251.809830 157.775696,259.941833 156.708481,265.662811 
	C156.111206,268.864563 155.611496,272.269409 154.126450,275.086487 
	C149.409164,284.034760 142.708298,284.557404 133.110992,282.489685 
	C126.134979,280.986786 120.436981,270.069336 122.349457,262.781250 
	C123.318169,259.089630 125.630432,255.750565 127.649498,252.106522 
z"/>
<path fill="#835C6C" opacity="1.000000" stroke="none" 
	d="
M142.799545,207.732529 
	C145.226746,200.054626 147.653946,192.376724 150.237106,184.578506 
	C151.517395,185.646881 153.093369,186.650284 153.672791,188.062546 
	C154.906998,191.070892 156.286865,192.597702 159.606934,190.040192 
	C158.330841,196.338806 156.821259,202.816437 155.121918,209.318542 
	C154.827896,208.436249 154.723633,207.529465 154.619370,206.622681 
	C154.131393,206.922165 153.643417,207.221649 153.155457,207.521118 
	C153.221085,204.513489 153.286728,201.505829 153.159973,197.875275 
	C153.022797,196.831818 153.077988,196.411270 153.308899,196.021118 
	C153.625824,195.636612 153.767014,195.221695 153.840851,194.683502 
	C153.515808,194.725281 153.258133,194.890350 152.989655,195.029297 
	C152.978867,195.003174 153.034851,195.005280 152.776733,194.935181 
	C152.162994,194.884521 151.807404,194.903976 151.442734,194.585419 
	C151.433670,192.914276 151.433670,191.581131 151.433670,190.248001 
	C151.121628,190.187195 150.809601,190.126404 150.497559,190.065598 
	C147.931549,195.954575 145.365555,201.843552 142.799545,207.732529 
z"/>
<path fill="#BC3B3F" opacity="1.000000" stroke="none" 
	d="
M153.133179,195.990707 
	C153.077988,196.411270 153.022797,196.831818 152.934265,197.568695 
	C150.715256,204.817169 148.532990,211.750412 146.339157,218.679977 
	C146.092850,219.457993 146.000153,220.497833 145.453049,220.922089 
	C144.385483,221.749893 143.046768,222.227997 141.820328,222.850906 
	C141.480927,221.604950 141.034790,220.375305 140.841125,219.107086 
	C140.720139,218.314758 140.979797,217.464325 140.982025,216.251587 
	C140.895386,215.863235 140.963455,215.921127 141.242233,215.836990 
	C141.680756,215.140976 141.840500,214.529099 142.000244,213.917221 
	C142.000244,213.917221 142.021500,214.013748 142.317352,213.904388 
	C143.833450,211.436859 145.053711,209.078690 146.512817,206.542297 
	C148.154541,202.713028 149.557419,199.061996 151.085999,195.291931 
	C151.211685,195.172882 151.451797,194.923431 151.451797,194.923431 
	C151.807404,194.903976 152.162994,194.884521 152.787201,195.182892 
	C153.055817,195.500717 153.133194,195.990707 153.133179,195.990707 
z"/>
<path fill="#2999B8" opacity="1.000000" stroke="none" 
	d="
M342.673859,208.694550 
	C341.479248,207.806229 339.844208,206.785400 338.971466,205.312790 
	C333.345093,195.819260 327.864685,186.238724 322.398499,176.651337 
	C321.758179,175.528259 321.497162,174.188950 321.003357,172.600037 
	C323.754120,176.415985 326.778595,180.454224 329.322205,184.775497 
	C333.895599,192.545151 338.180542,200.484589 342.673859,208.694550 
z"/>
<path fill="#BC3B3F" opacity="1.000000" stroke="none" 
	d="
M153.085571,207.939957 
	C153.643417,207.221649 154.131393,206.922165 154.619370,206.622681 
	C154.723633,207.529465 154.827896,208.436249 154.956207,209.642273 
	C154.024902,215.253952 153.251938,220.610672 151.979446,225.845993 
	C151.680344,227.076477 149.694519,227.896957 148.484680,228.906052 
	C148.208649,227.522690 147.402573,225.987747 147.747391,224.781921 
	C149.327271,219.257156 151.229324,213.824509 153.085571,207.939957 
z"/>
<path fill="#2998B7" opacity="1.000000" stroke="none" 
	d="
M188.093414,196.196625 
	C189.171753,195.344269 190.339066,194.819351 191.525452,194.676941 
	C191.627045,196.691177 191.214584,198.568787 191.881042,199.910431 
	C194.272034,204.723816 197.027924,209.355911 199.645874,214.056549 
	C198.867126,214.522171 198.088379,214.987808 197.170731,215.698822 
	C194.853790,211.636078 192.595016,207.366119 190.533020,203.003159 
	C189.555603,200.935074 188.954147,198.689316 188.093414,196.196625 
z"/>
<path fill="#835C6C" opacity="1.000000" stroke="none" 
	d="
M232.373016,228.205872 
	C258.333557,228.021027 284.654602,228.036438 311.436005,228.095734 
	C310.444824,228.421906 308.993744,228.947250 307.541626,228.950211 
	C283.746490,228.998688 259.951233,228.989120 236.156021,228.954300 
	C235.014923,228.952621 233.874329,228.596939 232.373016,228.205872 
z"/>
<path fill="#D2393C" opacity="1.000000" stroke="none" 
	d="
M169.796829,194.362854 
	C170.334137,193.704880 170.871445,193.046890 171.701172,192.181519 
	C173.417938,192.067459 174.842270,192.160782 176.250351,192.253036 
	C176.396759,193.015320 176.640823,193.518875 176.552048,193.954636 
	C176.131302,196.020279 176.136810,199.462936 175.046356,199.866989 
	C171.350922,201.236191 172.630081,197.189194 171.486679,195.629166 
	C171.210297,195.252075 170.730591,195.023987 169.956543,194.699753 
	C169.568695,194.672119 169.796829,194.362854 169.796829,194.362854 
z"/>
<path fill="#D2393C" opacity="1.000000" stroke="none" 
	d="
M172.609650,188.859543 
	C171.835403,187.305939 171.268173,185.778671 171.077225,184.205719 
	C170.767990,181.658554 171.678101,180.038040 174.638382,180.119339 
	C177.869095,180.208054 177.262543,182.217911 176.957916,184.237198 
	C176.836365,185.042755 177.007172,185.892441 177.074112,187.056396 
	C175.730759,187.882309 174.358185,188.373840 172.609650,188.859543 
z"/>
<path fill="#2999B8" opacity="1.000000" stroke="none" 
	d="
M275.077179,171.621338 
	C274.542145,171.365112 273.537537,170.642624 273.636810,170.136810 
	C274.590912,165.275208 271.560303,162.959686 268.104126,160.658401 
	C265.147064,158.689453 265.252838,158.530609 267.620483,156.675278 
	C269.175476,158.168777 270.223022,160.141754 271.841827,160.908340 
	C276.868042,163.288467 277.476471,166.715424 275.077179,171.621338 
z"/>
<path fill="#DF3739" opacity="1.000000" stroke="none" 
	d="
M169.583221,194.125916 
	C169.796829,194.362854 169.568695,194.672119 169.538666,194.727631 
	C169.239090,196.380646 168.969513,197.978149 168.524673,200.614441 
	C167.036148,199.695023 165.055801,199.107834 164.957138,198.292831 
	C164.648743,195.745728 163.474915,192.418671 167.958237,191.351959 
	C168.577316,192.006561 168.973465,192.947769 169.583221,194.125916 
z"/>
<path fill="#2999B8" opacity="1.000000" stroke="none" 
	d="
M308.305786,156.849136 
	C307.993622,154.432938 308.022369,152.070755 308.042847,149.333344 
	C309.062866,150.400940 310.194977,151.782089 311.096954,153.299973 
	C312.767151,156.110626 311.656616,157.192017 308.305786,156.849136 
z"/>
<path fill="#835C6C" opacity="1.000000" stroke="none" 
	d="
M160.320618,189.796783 
	C161.147034,188.988632 162.433487,188.158188 164.212509,187.417511 
	C166.075836,187.905029 167.446609,188.302750 168.817368,188.700485 
	C168.853378,189.023422 168.766632,189.308929 168.378082,189.690460 
	C165.726257,189.807465 163.253448,189.790970 160.320618,189.796783 
z"/>
<path fill="#D2393C" opacity="1.000000" stroke="none" 
	d="
M135.649109,248.226288 
	C134.551712,248.845215 133.101334,249.396790 131.301575,249.941437 
	C132.400177,249.342651 133.848160,248.750793 135.649109,248.226288 
z"/>
<path fill="#D2393C" opacity="1.000000" stroke="none" 
	d="
M147.830429,249.675781 
	C146.511765,249.562424 145.011627,249.150513 143.261703,248.516785 
	C144.557587,248.655731 146.103287,249.016495 147.830429,249.675781 
z"/>
<path fill="#D2393C" opacity="1.000000" stroke="none" 
	d="
M130.690765,249.938507 
	C130.157654,250.581940 129.374420,251.222412 128.275116,251.914062 
	C128.786255,251.288666 129.613449,250.612091 130.690765,249.938507 
z"/>
<path fill="#D2393C" opacity="1.000000" stroke="none" 
	d="
M140.726898,247.996033 
	C140.130783,248.196854 139.319611,248.262497 138.283203,248.211548 
	C138.875916,248.016907 139.693878,247.938889 140.726898,247.996033 
z"/>
<path fill="#2998B7" opacity="1.000000" stroke="none" 
	d="
M186.696091,194.171906 
	C187.041702,194.361923 187.604218,194.805252 188.125595,195.641891 
	C187.693970,195.498535 187.303482,194.961899 186.696091,194.171906 
z"/>
<path fill="#4C6971" opacity="1.000000" stroke="none" 
	d="
M199.743225,214.120667 
	C197.027924,209.355911 194.272034,204.723816 191.881042,199.910431 
	C191.214584,198.568787 191.627045,196.691177 191.778336,194.807739 
	C192.982040,193.685226 193.951950,192.814407 195.203888,191.940704 
	C196.045013,192.476898 196.604095,193.015991 197.250870,193.939240 
	C197.572632,194.470581 197.806702,194.617767 198.040756,194.764969 
	C198.040756,194.764969 198.099640,194.866653 198.132568,195.231659 
	C198.811905,196.331024 199.458298,197.065384 200.104691,197.799759 
	C200.104691,197.799759 200.127075,197.881439 200.136230,198.271973 
	C202.075699,201.485580 204.006012,204.308655 205.936340,207.131744 
	C206.158478,207.627014 206.380615,208.122269 206.872833,209.110229 
	C207.779465,210.374039 208.416016,211.145142 209.052567,211.916229 
	C209.052567,211.916229 209.033447,211.973526 209.140778,212.282593 
	C212.044159,213.398514 214.836945,214.894165 217.636780,214.907455 
	C252.087372,215.070770 286.539124,215.065643 320.990143,214.962814 
	C325.628510,214.948975 328.104126,216.559448 328.345856,222.003189 
	C325.743683,222.003189 323.446838,222.003036 321.149994,222.003204 
	C287.197937,222.005569 253.245865,221.989517 219.293900,222.049026 
	C216.848770,222.053314 214.404572,222.609009 211.959946,222.908325 
	C211.959946,222.908325 211.511322,222.940460 211.168213,222.823486 
	C210.529831,222.792664 210.234573,222.878799 209.939316,222.964935 
	C209.500153,222.987244 209.061005,223.009567 208.037628,222.867249 
	C206.634094,222.474457 205.814789,222.246307 204.995483,222.018143 
	C204.995483,222.018143 205.006088,221.996414 204.964691,221.670380 
	C204.271790,220.585709 203.620285,219.827072 202.968765,219.068436 
	C202.252060,217.872559 201.535355,216.676682 200.592957,215.067200 
	C200.367279,214.653610 199.992874,214.361267 199.992874,214.361267 
	C199.992874,214.361267 199.840561,214.184769 199.743225,214.120667 
z"/>
<path fill="#2998B7" opacity="1.000000" stroke="none" 
	d="
M212.331268,223.100800 
	C214.404572,222.609009 216.848770,222.053314 219.293900,222.049026 
	C253.245865,221.989517 287.197937,222.005569 321.149994,222.003204 
	C323.446838,222.003036 325.743683,222.003189 328.345856,222.003189 
	C328.104126,216.559448 325.628510,214.948975 320.990143,214.962814 
	C286.539124,215.065643 252.087372,215.070770 217.636780,214.907455 
	C214.836945,214.894165 212.044159,213.398514 209.169128,212.272247 
	C212.383087,212.303406 215.675339,212.951355 218.969025,212.958725 
	C252.922394,213.034698 286.876404,213.089462 320.829071,212.917084 
	C325.764557,212.892029 328.607910,214.885620 330.517151,219.090439 
	C331.808136,221.933685 331.200500,223.603653 327.947052,223.889572 
	C326.623688,224.005890 325.286957,223.999161 323.956329,223.999512 
	C289.004181,224.008896 254.052002,224.024460 219.099884,223.984894 
	C216.967209,223.982483 214.835007,223.534149 212.331268,223.100800 
z"/>
<path fill="#2998B7" opacity="1.000000" stroke="none" 
	d="
M205.869217,206.775452 
	C204.006012,204.308655 202.075699,201.485580 200.172791,198.293335 
	C202.067474,200.755844 203.934784,203.587509 205.869217,206.775452 
z"/>
<path fill="#2998B7" opacity="1.000000" stroke="none" 
	d="
M203.026825,219.376099 
	C203.620285,219.827072 204.271790,220.585709 204.953369,221.674072 
	C204.350571,221.230453 203.717712,220.457123 203.026825,219.376099 
z"/>
<path fill="#2998B7" opacity="1.000000" stroke="none" 
	d="
M205.116699,222.257050 
	C205.814789,222.246307 206.634094,222.474457 207.709015,222.895142 
	C207.055710,222.890457 206.146805,222.693207 205.116699,222.257050 
z"/>
<path fill="#2998B7" opacity="1.000000" stroke="none" 
	d="
M200.033417,197.510391 
	C199.458298,197.065384 198.811905,196.331024 198.183350,195.261230 
	C198.788162,195.690872 199.375153,196.455948 200.033417,197.510391 
z"/>
<path fill="#2998B7" opacity="1.000000" stroke="none" 
	d="
M208.985153,211.609436 
	C208.416016,211.145142 207.779465,210.374039 207.063538,209.305222 
	C207.628677,209.772537 208.273209,210.537598 208.985153,211.609436 
z"/>
<path fill="#2998B7" opacity="1.000000" stroke="none" 
	d="
M197.968414,194.667191 
	C197.806702,194.617767 197.572632,194.470581 197.459045,194.268524 
	C197.579544,194.213669 197.896057,194.569412 197.968414,194.667191 
z"/>
<path fill="#2998B7" opacity="1.000000" stroke="none" 
	d="
M195.795013,191.181519 
	C195.648499,191.150620 195.399155,190.861908 195.121811,190.283066 
	C195.293259,190.303192 195.492737,190.613449 195.795013,191.181519 
z"/>
<path fill="#2998B7" opacity="1.000000" stroke="none" 
	d="
M210.220032,222.970810 
	C210.234573,222.878799 210.529831,222.792664 210.943619,222.835144 
	C210.875015,222.968063 210.687881,222.972366 210.220032,222.970810 
z"/>
<path fill="#2998B7" opacity="1.000000" stroke="none" 
	d="
M200.065460,214.453735 
	C199.992874,214.361267 200.367279,214.653610 200.423996,214.753235 
	C200.480713,214.852875 200.138031,214.546204 200.065460,214.453735 
z"/>
<path fill="#D2393C" opacity="1.000000" stroke="none" 
	d="
M168.890167,188.280487 
	C167.446609,188.302750 166.075836,187.905029 164.505646,187.252472 
	C164.198120,184.928421 164.090027,182.859207 163.965240,180.470459 
	C165.785507,180.470459 167.133896,180.470459 168.962952,180.470459 
	C168.962952,183.046265 168.962952,185.453369 168.890167,188.280487 
z"/>
<path fill="#4F6871" opacity="1.000000" stroke="none" 
	d="
M170.370438,256.227722 
	C173.870544,252.709671 177.664429,253.044296 181.081131,255.097748 
	C185.647583,257.842194 186.086731,262.775360 185.675369,267.414551 
	C185.202408,272.748627 181.994553,275.581848 177.804245,276.105042 
	C168.479660,277.269318 166.374664,270.068481 167.639938,261.885773 
	C167.928497,260.019653 169.269608,258.316315 170.370438,256.227722 
z"/>
<path fill="#4F6871" opacity="1.000000" stroke="none" 
	d="
M110.459465,274.865906 
	C108.672607,275.309174 107.238625,275.593323 105.800339,275.853638 
	C102.113075,276.520996 101.950798,274.255219 101.862885,271.477814 
	C101.760216,268.234070 103.143867,266.646820 106.201904,267.333771 
	C108.267639,267.797791 110.416451,268.859039 111.931602,270.286316 
	C112.467209,270.790894 111.235329,273.171753 110.459465,274.865906 
z"/>
<path fill="#4C6971" opacity="1.000000" stroke="none" 
	d="
M102.056671,254.021500 
	C103.517128,253.996262 104.986557,253.855103 106.436356,253.967438 
	C110.883003,254.311935 111.938026,256.606781 108.902412,260.955200 
	C106.095177,261.027496 104.059586,260.994171 102.023987,260.960815 
	C102.023987,260.960815 101.998726,261.000946 102.005676,260.553955 
	C102.027313,258.078491 102.041992,256.049988 102.056671,254.021500 
z"/>
<path fill="#D2393C" opacity="1.000000" stroke="none" 
	d="
M101.767197,254.216431 
	C102.041992,256.049988 102.027313,258.078491 102.025879,260.541626 
	C99.479576,258.990814 99.440117,256.789917 101.767197,254.216431 
z"/>
<path fill="#D2393C" opacity="1.000000" stroke="none" 
	d="
M102.199913,261.239258 
	C104.059586,260.994171 106.095177,261.027496 108.562241,261.128357 
	C106.787750,261.303162 104.581795,261.410431 102.199913,261.239258 
z"/>
<path fill="#4C6971" opacity="1.000000" stroke="none" 
	d="
M145.178177,274.444275 
	C136.824280,278.950653 129.687439,273.944183 130.875641,266.501892 
	C131.108292,265.044800 130.389755,263.237549 131.014725,262.080597 
	C132.552917,259.233124 134.047363,255.514481 136.599960,254.254929 
	C140.753403,252.205460 145.377472,254.743683 147.395691,258.665863 
	C150.317291,264.343597 149.717819,269.121643 145.178177,274.444275 
z"/>
<path fill="#4C6971" opacity="1.000000" stroke="none" 
	d="
M146.273972,206.720535 
	C145.053711,209.078690 143.833450,211.436859 142.269089,213.915024 
	C142.119370,212.594254 142.313751,211.153488 142.590256,209.109436 
	C142.672379,208.506180 142.573090,208.056671 142.573090,208.056671 
	C142.573090,208.056671 142.645569,207.867340 142.722565,207.799927 
	C145.365555,201.843552 147.931549,195.954575 150.497559,190.065598 
	C150.809601,190.126404 151.121628,190.187195 151.433670,190.248001 
	C151.433670,191.581131 151.433670,192.914276 151.442734,194.585419 
	C151.451797,194.923431 151.211685,195.172882 150.867340,195.508423 
	C149.106674,199.469498 147.690323,203.095016 146.273972,206.720535 
z"/>
<path fill="#4C6971" opacity="1.000000" stroke="none" 
	d="
M141.663681,214.057480 
	C141.840500,214.529099 141.680756,215.140976 141.213196,215.870941 
	C141.045959,215.391937 141.186539,214.794846 141.663681,214.057480 
z"/>
<path fill="#835C6C" opacity="1.000000" stroke="none" 
	d="
M142.441910,208.147003 
	C142.573090,208.056671 142.672379,208.506180 142.687164,208.732513 
	C142.329453,208.836334 142.199036,208.595840 142.441910,208.147003 
z"/>
<path fill="#4C6971" opacity="1.000000" stroke="none" 
	d="
M153.308899,196.021118 
	C153.133194,195.990707 153.055817,195.500717 153.045334,195.252991 
	C153.034851,195.005280 152.978867,195.003174 153.217270,194.969452 
	C153.455673,194.935745 153.908203,194.806778 153.908203,194.806778 
	C153.767014,195.221695 153.625824,195.636612 153.308899,196.021118 
z"/>
<path fill="#BC3B3F" opacity="1.000000" stroke="none" 
	d="
M153.840851,194.683502 
	C153.908203,194.806778 153.455673,194.935745 153.228058,194.995590 
	C153.258133,194.890350 153.515808,194.725281 153.840851,194.683502 
z"/>
<path fill="#835C6C" opacity="1.000000" stroke="none" 
	d="
M146.512817,206.542297 
	C147.690323,203.095016 149.106674,199.469498 150.741653,195.627472 
	C149.557419,199.061996 148.154541,202.713028 146.512817,206.542297 
z"/>
</svg>