<svg version="1.1" id="Layer_1" xmlns="http://www.w3.org/2000/svg" xmlns:xlink="http://www.w3.org/1999/xlink" x="0px" y="0px"
	 width="100%" viewBox="0 0 475 475" enable-background="new 0 0 475 475" xml:space="preserve">
<path fill="#4C6971" opacity="1.000000" stroke="none" 
	d="
M216.000000,476.000000 
	C144.018814,476.000000 72.537621,476.000000 1.028217,476.000000 
	C1.028217,317.727142 1.028217,159.454269 1.028217,1.090702 
	C159.231171,1.090702 317.462402,1.090702 475.846802,1.090702 
	C475.846802,159.333221 475.846802,317.666595 475.846802,476.000000 
	C389.454315,476.000000 302.977173,476.000000 216.000000,476.000000 
M326.928986,232.345306 
	C326.287231,231.553665 325.645477,230.762024 324.960510,229.519638 
	C324.960510,229.519638 324.997284,229.068298 325.930206,229.057541 
	C329.428375,229.028595 332.937958,229.166367 336.421844,228.928467 
	C340.767731,228.631744 341.581512,226.892410 339.470184,223.024200 
	C338.177338,220.655609 336.881836,218.288483 335.267822,215.335815 
	C339.168396,215.109528 341.952759,214.947983 345.871643,214.720642 
	C344.661194,212.724396 343.827271,211.349106 342.871490,209.518005 
	C342.871490,209.518005 342.774750,209.056229 342.712280,208.345108 
	C337.348999,198.878616 332.059296,189.369186 326.576752,179.972290 
	C324.969086,177.216782 322.813538,174.780914 319.984680,172.147736 
	C304.979889,172.103546 289.975067,172.059357 275.078766,171.278854 
	C277.925201,166.738754 277.076019,163.403061 272.140900,160.913940 
	C270.489105,160.080795 269.348267,158.234619 268.913330,156.897903 
	C282.590851,156.869980 296.268402,156.842072 310.575073,156.887009 
	C311.023651,156.137985 312.037811,155.081772 311.825836,154.691528 
	C310.736115,152.685226 309.331390,150.850021 308.008087,149.004440 
	C308.008087,149.004440 308.052704,148.967773 307.906433,148.230545 
	C306.678101,144.672318 303.664764,145.046844 300.842804,145.046478 
	C257.850098,145.041061 214.857330,145.027451 171.864731,145.096481 
	C170.192566,145.099182 168.521713,145.908401 166.139862,146.531296 
	C165.110580,147.266495 163.624130,147.774506 163.127258,148.774292 
	C160.221603,154.620926 157.547577,160.582657 154.591629,167.055344 
	C146.621826,182.393570 138.652023,197.731796 130.220123,213.959320 
	C134.287521,214.785004 136.669632,215.268585 139.610443,215.677170 
	C139.958664,215.525269 140.306885,215.373367 140.903976,216.054993 
	C140.903976,218.317673 140.903976,220.580368 140.903976,222.843048 
	C141.590195,223.115585 142.276398,223.388138 142.962616,223.660675 
	C145.137238,220.406448 147.311874,217.152222 149.486511,213.897995 
	C149.754700,214.024246 150.022903,214.150497 150.291092,214.276749 
	C149.216980,218.916916 148.142853,223.557083 147.068741,228.197235 
	C147.561615,228.535721 148.054489,228.874191 148.547363,229.212677 
	C149.671555,228.142059 151.544266,227.222107 151.795166,225.975708 
	C153.144089,219.274460 154.089737,212.492020 155.705475,205.385300 
	C157.030136,200.183411 158.354813,194.981537 159.697037,189.697144 
	C159.697037,189.697144 159.781052,189.704681 160.485229,189.516159 
	C161.658264,189.250443 162.831299,188.984711 164.562500,189.042297 
	C165.445297,189.399048 166.328094,189.755798 167.210892,190.112549 
	C166.708038,190.139603 166.205200,190.166656 165.702347,190.193726 
	C165.318405,193.076126 163.951477,196.296906 164.797928,198.755753 
	C165.869461,201.868515 168.279587,199.770813 170.031494,198.364105 
	C170.248276,198.190033 170.926575,198.669052 171.405624,198.729294 
	C173.142273,198.947678 175.470993,199.865494 176.459747,199.092026 
	C177.434555,198.329483 177.725357,195.509277 177.084045,194.191528 
	C176.421600,192.830368 174.275589,192.191208 172.183670,190.454880 
	C172.089371,190.141403 171.995071,189.827927 172.709366,189.511353 
	C174.451050,189.147675 176.192719,188.783997 178.747650,188.629517 
	C184.060516,188.290146 186.519333,191.534576 188.192612,196.731705 
	C189.194397,199.531509 189.985931,202.429718 191.240784,205.111084 
	C194.047028,211.107590 197.084106,216.996063 200.173401,223.481155 
	C200.226349,223.664185 200.279312,223.847229 199.982452,224.361816 
	C200.569382,224.992813 201.156296,225.623810 201.789001,226.280258 
	C201.789001,226.280258 201.740845,226.300888 201.865051,226.811691 
	C201.968033,227.148331 202.070999,227.484985 202.298431,228.369598 
	C204.235199,228.579559 206.171661,228.969406 208.108795,228.972794 
	C244.343781,229.036423 280.578857,229.054184 316.925873,229.664032 
	C315.198914,230.121887 313.472839,230.975418 311.744873,230.979294 
	C275.806702,231.059906 239.868225,231.002411 203.930267,231.117310 
	C200.641296,231.127808 198.177292,230.852005 196.885162,227.318497 
	C196.147903,225.302338 194.732590,223.534134 193.622574,221.654282 
	C193.197235,221.752609 192.771896,221.850937 192.346542,221.949249 
	C192.729385,225.544159 192.965439,229.162552 193.536148,232.727386 
	C194.112152,236.325363 196.168381,238.008926 200.107773,237.904282 
	C207.568039,237.706116 215.042419,238.096115 222.507065,237.984024 
	C227.283691,237.912308 232.053360,237.378693 237.648636,237.636688 
	C238.301987,237.742981 238.955231,237.941483 239.608704,237.942291 
	C267.986725,237.977234 296.364746,238.007095 324.742706,237.973038 
	C326.000336,237.971527 327.257202,237.367813 328.769226,236.672516 
	C328.195343,235.430420 327.621429,234.188324 327.007629,233.000488 
	C327.007629,233.000488 327.063538,232.962463 326.928986,232.345306 
M150.118881,250.874054 
	C150.118881,250.874054 150.005447,250.867233 149.720688,250.233154 
	C147.476944,249.590042 145.233185,248.946930 142.131088,248.122452 
	C140.094910,248.182358 138.058716,248.242264 135.266022,248.170609 
	C132.981308,249.029572 130.347580,249.423309 128.473297,250.829361 
	C121.017929,256.422272 120.035667,270.377258 126.320274,277.797577 
	C131.809250,284.278473 144.560516,285.371979 150.769089,279.820923 
	C156.963684,274.282349 159.321625,259.433350 152.124817,252.883316 
	C152.124817,252.883316 152.009766,252.867874 151.882339,252.311935 
	C151.299072,251.870239 150.715790,251.428558 150.118881,250.874054 
M167.941406,249.292557 
	C158.251648,252.890533 155.659607,270.026794 164.179779,278.730988 
	C169.550720,284.217926 176.254257,284.085114 182.729416,282.423615 
	C190.655960,280.389679 193.120697,273.248474 193.574951,266.302948 
	C193.984406,260.042572 191.937683,253.657516 185.856750,250.106705 
	C180.439514,246.943436 174.526642,247.111618 167.941406,249.292557 
M223.249954,254.833450 
	C225.207123,253.077515 227.164291,251.321594 229.786575,248.968948 
	C224.627518,247.533051 221.304367,247.856445 218.307739,251.165817 
	C214.738693,255.107376 210.779434,258.695618 206.509201,262.910797 
	C206.169769,258.857422 206.175629,255.360443 205.458633,252.018555 
	C205.146317,250.562820 203.542633,248.640869 202.188126,248.309540 
	C199.516800,247.656113 198.476852,249.585831 198.447784,252.200378 
	C198.351730,260.842712 198.235352,269.486237 197.971313,278.124542 
	C197.873260,281.332886 198.626083,283.122314 202.340179,283.043915 
	C205.989044,282.966919 206.448685,280.882874 206.158951,278.113037 
	C205.666229,273.402283 208.187683,270.439636 211.982147,267.529175 
	C214.421051,271.162964 217.115875,274.358307 218.877029,278.004608 
	C221.201935,282.818146 224.537125,283.996216 230.619186,282.105072 
	C227.909897,278.083435 225.521912,274.318329 222.913742,270.712494 
	C217.247208,262.878510 217.201248,262.911743 223.249954,254.833450 
M337.831268,273.015869 
	C339.772125,265.862366 340.355865,258.558746 334.887573,252.870636 
	C328.058441,245.767014 319.025970,248.483444 310.099091,248.272186 
	C310.099091,256.700104 310.044067,264.482483 310.111420,272.263763 
	C310.225372,285.430664 308.431305,282.573212 320.305237,282.901367 
	C327.754913,283.107300 334.006165,280.979462 337.831268,273.015869 
M263.504761,248.626892 
	C258.088928,248.626892 252.673065,248.626892 247.071747,248.626892 
	C247.071747,260.014496 247.071747,271.256165 247.071747,282.862762 
	C251.718689,282.862762 256.027679,282.839111 260.336365,282.868835 
	C265.516388,282.904602 269.087036,280.727936 271.058777,275.767151 
	C273.075775,270.692566 270.622620,267.358459 267.152710,264.263123 
	C271.629089,256.911621 270.871918,252.950592 263.504761,248.626892 
M353.489990,248.105911 
	C350.693359,248.105911 347.896759,248.105911 344.179779,248.105911 
	C344.179779,259.229889 344.146759,269.968506 344.254944,280.705719 
	C344.262054,281.411224 345.348206,282.713226 345.932159,282.713074 
	C353.112579,282.711212 360.681610,284.463715 366.953918,279.326660 
	C372.988983,274.383911 374.764618,265.805420 371.771973,257.612854 
	C369.344574,250.967697 364.277405,248.189468 353.489990,248.105911 
M303.415710,270.877563 
	C303.415710,263.423492 303.415710,255.969421 303.415710,248.427017 
	C300.810944,248.427017 298.747314,248.427017 296.193970,248.427017 
	C296.193970,255.389877 296.374420,262.024994 296.136475,268.645050 
	C295.948456,273.875702 293.586151,276.195496 289.394562,276.067322 
	C284.299896,275.911530 283.786926,272.445679 283.817963,268.477142 
	C283.869720,261.863861 283.832062,255.249847 283.832062,248.425995 
	C281.104126,248.425995 278.899750,248.425995 276.274994,248.425995 
	C276.274994,255.387604 276.328949,262.015900 276.262115,268.642975 
	C276.165985,278.174042 280.025604,283.023712 288.980682,283.578583 
	C295.052124,283.954773 302.355194,281.709625 303.415710,270.877563 
M95.122429,248.537659 
	C94.786766,249.741302 94.186928,250.939194 94.160561,252.149582 
	C94.037361,257.807159 94.050415,263.468170 94.055023,269.127899 
	C94.066566,283.312286 94.075294,283.312317 108.331352,282.939087 
	C117.751205,282.692474 122.128059,275.183411 117.939713,266.870453 
	C117.062790,265.129944 116.723129,262.563782 117.298080,260.745575 
	C119.451424,253.935898 115.658890,248.197220 108.491837,248.153961 
	C104.332901,248.128845 100.172935,248.275833 95.122429,248.537659 
M375.385712,248.143051 
	C375.977631,250.011383 376.295776,252.027039 377.208344,253.722824 
	C381.442963,261.591888 388.045593,268.558319 386.125946,278.654205 
	C385.515686,281.863770 386.984619,282.999603 390.287659,282.996124 
	C393.674622,282.992554 394.270721,281.339661 393.946045,278.643280 
	C393.198608,272.436157 394.751526,267.003845 398.471893,261.880310 
	C401.492859,257.720032 403.767548,253.017838 406.361145,248.576660 
	C394.859192,245.227402 395.221161,256.161041 389.900482,260.925507 
	C388.485748,258.488129 386.891296,256.013275 385.569702,253.400375 
	C383.583801,249.473953 380.864624,247.086624 375.385712,248.143051 
z"/>
<path fill="#20A2C6" opacity="1.000000" stroke="none" 
	d="
M324.997284,229.068298 
	C324.997284,229.068298 324.960510,229.519638 325.030151,230.068298 
	C325.754395,231.398804 326.408966,232.180634 327.063538,232.962463 
	C327.063538,232.962463 327.007629,233.000488 327.012634,233.336884 
	C326.997009,234.632156 326.976379,235.591019 326.491669,236.590302 
	C296.359436,236.605133 266.691284,236.579514 236.628601,236.441254 
	C234.079773,236.207138 231.925995,235.991470 229.771149,235.980469 
	C220.122696,235.931152 210.471710,236.042175 200.827515,235.829376 
	C199.186722,235.793152 197.574570,234.458542 194.850815,233.227249 
	C204.532761,233.516205 212.387329,233.931900 220.242966,233.952881 
	C250.186981,234.032867 280.131317,233.986664 310.075562,233.982895 
	C311.738708,233.982681 313.460388,234.199982 315.048004,233.842087 
	C316.542908,233.505066 317.896423,232.541000 319.312164,231.852783 
	C318.603821,230.503525 317.895477,229.154251 316.928589,227.521957 
	C314.440338,226.831512 312.211853,226.077408 309.980774,226.069809 
	C285.370361,225.985962 260.759491,225.989441 236.148849,226.031601 
	C224.679398,226.051254 213.210175,226.206879 201.740845,226.300888 
	C201.740845,226.300888 201.789001,226.280258 201.735703,225.982300 
	C201.232361,225.132980 200.782318,224.581635 200.332291,224.030273 
	C200.279312,223.847229 200.226349,223.664185 200.125107,222.855316 
	C201.020950,221.165894 201.965088,220.102295 202.936157,219.048553 
	C202.963058,219.058426 202.968369,219.115479 203.072662,219.262817 
	C203.325485,219.598602 203.493835,219.767273 203.763123,220.201981 
	C203.897690,220.678513 203.951096,220.869247 204.134094,221.407501 
	C206.477936,222.507248 208.690033,223.907883 210.906769,223.915253 
	C249.035843,224.042114 287.165466,223.997421 325.294983,223.987640 
	C326.127228,223.987427 326.960968,223.981201 327.791473,223.933487 
	C331.420410,223.725021 331.891479,221.972504 330.457153,218.921585 
	C328.479492,214.714951 325.622131,212.876892 320.693390,212.906174 
	C287.060669,213.105942 253.425980,212.954254 219.792496,213.072662 
	C214.978577,213.089600 210.536926,212.797043 207.078766,208.946671 
	C207.052063,208.942062 207.063431,208.889038 207.014893,208.538116 
	C204.981400,205.441528 202.996460,202.695862 200.946030,199.769608 
	C200.880554,199.589020 200.908737,199.205856 200.850189,198.928406 
	C200.320892,198.089523 199.850128,197.528122 199.201172,196.786530 
	C199.003479,196.283279 198.983994,195.960220 198.763275,195.308167 
	C198.257538,194.558136 197.953033,194.137100 197.378510,193.552124 
	C193.361740,187.361649 189.614990,181.335083 185.819702,175.021698 
	C185.307297,174.145660 184.843445,173.556473 184.196625,172.799271 
	C183.802963,172.348129 183.729279,172.032959 183.729965,171.340439 
	C183.077484,170.331070 182.487640,169.667023 181.825836,168.898148 
	C181.753860,168.793335 181.962845,168.648483 181.783356,168.367142 
	C181.310684,167.753159 181.017517,167.420502 180.530151,166.956451 
	C180.131226,166.571945 180.024612,166.282715 179.925934,165.680847 
	C179.478333,164.951218 179.120956,164.498093 178.827148,164.057877 
	C178.890732,164.070801 178.864105,164.197800 178.796173,163.897705 
	C178.393204,163.094238 178.058167,162.590881 177.510071,161.989304 
	C177.184937,161.477692 177.072891,161.064301 176.781860,160.369202 
	C176.310135,159.754532 176.017365,159.421570 175.532867,158.954224 
	C175.132690,158.569824 175.024002,158.282089 174.921448,157.681946 
	C174.467636,156.956940 174.107452,156.506668 173.810638,156.071686 
	C173.874008,156.086945 173.842590,156.213486 173.767014,155.906891 
	C173.302719,155.111450 172.914001,154.622620 172.662476,154.108490 
	C172.799683,154.083176 172.849258,154.357788 172.716339,154.118225 
	C172.354355,153.597198 172.125290,153.315720 171.678192,152.920685 
	C171.185745,152.587143 171.042999,152.301392 170.971542,151.588028 
	C170.404083,150.386200 169.897018,149.546219 169.210449,148.690063 
	C169.030945,148.673920 168.888031,148.342972 169.430634,148.288101 
	C171.300797,148.155914 172.628342,148.011566 173.955933,148.011032 
	C216.358170,147.993607 258.760437,147.974762 301.162567,148.026443 
	C303.459656,148.029236 305.756012,148.639999 308.052704,148.967773 
	C308.052704,148.967773 308.008087,149.004440 308.029297,149.362488 
	C308.682281,152.085068 309.314117,154.449600 309.945923,156.814148 
	C296.268402,156.842072 282.590851,156.869980 268.189636,156.764038 
	C267.068451,157.517929 266.300049,159.172562 266.325867,159.185043 
	C271.617493,161.744232 273.951508,166.180664 274.552582,171.777832 
	C274.562561,171.870834 274.825409,171.936661 274.970276,172.015167 
	C289.975067,172.059357 304.979889,172.103546 320.505615,172.526917 
	C325.338348,180.869568 329.464996,188.941376 334.035065,196.753769 
	C336.565094,201.078766 339.837158,204.969650 342.774750,209.056229 
	C342.774750,209.056229 342.871490,209.518005 342.842163,210.115234 
	C341.325256,211.476074 339.898834,212.718536 338.339233,212.917648 
	C332.614349,213.648468 332.042664,214.624969 334.851044,219.827560 
	C335.749512,221.492020 336.539276,223.215179 337.960632,226.087234 
	C333.486481,226.087234 330.205444,225.924347 326.954620,226.166611 
	C325.634857,226.264969 322.301208,225.883942 324.997284,229.068298 
z"/>
<path fill="#091A23" opacity="1.000000" stroke="none" 
	d="
M168.888031,148.342972 
	C168.888031,148.342972 169.030945,148.673920 169.244415,149.077271 
	C169.982559,150.303696 170.507263,151.126785 171.031952,151.949860 
	C171.042999,152.301392 171.185745,152.587143 171.742981,153.204193 
	C172.300308,153.853439 172.574783,154.105606 172.849258,154.357788 
	C172.849258,154.357788 172.799683,154.083176 172.731537,154.423370 
	C173.056442,155.246887 173.449524,155.730179 173.842590,156.213486 
	C173.842590,156.213486 173.874008,156.086945 173.860107,156.368607 
	C174.235809,157.085739 174.625443,157.521210 175.015060,157.956680 
	C175.024002,158.282089 175.132690,158.569824 175.635681,159.287354 
	C176.273743,160.053528 176.617279,160.352219 176.960815,160.650909 
	C177.072891,161.064301 177.184937,161.477692 177.552780,162.299866 
	C178.160400,163.205017 178.512253,163.701416 178.864105,164.197800 
	C178.864105,164.197800 178.890732,164.070801 178.878540,164.354248 
	C179.249619,165.077560 179.632874,165.517441 180.016129,165.957321 
	C180.024612,166.282715 180.131226,166.571945 180.633133,167.289703 
	C181.274506,168.052414 181.618668,168.350449 181.962845,168.648483 
	C181.962845,168.648483 181.753860,168.793335 181.882233,169.235077 
	C182.604599,170.346466 183.198608,171.016113 183.792603,171.685760 
	C183.729279,172.032959 183.802963,172.348129 184.233017,173.085266 
	C184.924347,174.129013 185.396286,174.718765 185.868225,175.308517 
	C189.614990,181.335083 193.361740,187.361649 197.472900,193.956543 
	C198.213043,194.895630 198.588776,195.266388 198.964508,195.637146 
	C198.983994,195.960220 199.003479,196.283279 199.235779,197.070038 
	C199.935303,198.091095 200.422012,198.648483 200.908737,199.205856 
	C200.908737,199.205856 200.880554,199.589020 200.717926,199.944489 
	C200.360352,200.834854 200.165405,201.369751 199.539337,201.888977 
	C197.410919,202.024750 195.713623,202.176178 193.708344,202.163528 
	C191.601776,200.000137 189.803177,198.000824 188.004578,196.001511 
	C186.519333,191.534576 184.060516,188.290146 178.345505,188.148834 
	C177.918961,186.203812 178.356598,184.497528 177.749557,183.338257 
	C177.040283,181.983719 175.419586,181.106415 174.194290,180.022079 
	C173.448090,181.234787 172.314301,182.368790 172.048248,183.679001 
	C171.666946,185.556717 171.919098,187.563049 171.900772,189.514465 
	C171.995071,189.827927 172.089371,190.141403 172.120529,191.075470 
	C168.691101,192.876678 168.979996,192.881149 169.063766,187.460281 
	C169.102661,184.945404 171.167725,180.470901 166.653168,180.252457 
	C162.590881,180.055893 165.029648,184.398376 164.157578,186.568985 
	C164.097351,186.718857 164.100418,186.894180 163.739868,187.100845 
	C162.197464,187.997589 160.989258,188.851135 159.781052,189.704681 
	C159.781052,189.704681 159.697037,189.697144 159.366913,189.874741 
	C157.574646,190.739883 156.112534,191.427429 154.698029,191.866150 
	C154.453384,191.101059 154.161133,190.584793 153.620789,189.874939 
	C152.269775,189.103531 151.166870,188.525711 150.045349,187.536865 
	C150.389145,185.560379 150.751984,183.995041 151.113953,182.429504 
	C152.341263,177.121567 153.568268,171.813538 154.795380,166.505554 
	C157.547577,160.582657 160.221603,154.620926 163.127258,148.774292 
	C163.624130,147.774506 165.110580,147.266495 166.627609,146.555420 
	C167.706253,147.167343 168.297134,147.755157 168.888031,148.342972 
z"/>
<path fill="#E43738" opacity="1.000000" stroke="none" 
	d="
M168.287659,249.122040 
	C174.526642,247.111618 180.439514,246.943436 185.856750,250.106705 
	C191.937683,253.657516 193.984406,260.042572 193.574951,266.302948 
	C193.120697,273.248474 190.655960,280.389679 182.729416,282.423615 
	C176.254257,284.085114 169.550720,284.217926 164.179779,278.730988 
	C155.659607,270.026794 158.251648,252.890533 168.287659,249.122040 
M169.117935,257.759705 
	C168.491562,259.470093 167.652359,261.135223 167.277252,262.899048 
	C165.961273,269.087036 170.079437,275.794464 175.095352,276.129822 
	C178.880692,276.382904 182.983902,275.673584 183.931961,272.130890 
	C185.053253,267.940887 185.430588,262.762421 183.943085,258.842468 
	C181.509415,252.429184 174.303040,251.994064 169.117935,257.759705 
z"/>
<path fill="#E0393B" opacity="1.000000" stroke="none" 
	d="
M223.020264,255.111557 
	C217.201248,262.911743 217.247208,262.878510 222.913742,270.712494 
	C225.521912,274.318329 227.909897,278.083435 230.619186,282.105072 
	C224.537125,283.996216 221.201935,282.818146 218.877029,278.004608 
	C217.115875,274.358307 214.421051,271.162964 211.982147,267.529175 
	C208.187683,270.439636 205.666229,273.402283 206.158951,278.113037 
	C206.448685,280.882874 205.989044,282.966919 202.340179,283.043915 
	C198.626083,283.122314 197.873260,281.332886 197.971313,278.124542 
	C198.235352,269.486237 198.351730,260.842712 198.447784,252.200378 
	C198.476852,249.585831 199.516800,247.656113 202.188126,248.309540 
	C203.542633,248.640869 205.146317,250.562820 205.458633,252.018555 
	C206.175629,255.360443 206.169769,258.857422 206.509201,262.910797 
	C210.779434,258.695618 214.738693,255.107376 218.307739,251.165817 
	C221.304367,247.856445 224.627518,247.533051 229.786575,248.968948 
	C227.164291,251.321594 225.207123,253.077515 223.020264,255.111557 
z"/>
<path fill="#EBF2F4" opacity="1.000000" stroke="none" 
	d="
M337.671448,273.377136 
	C334.006165,280.979462 327.754913,283.107300 320.305237,282.901367 
	C308.431305,282.573212 310.225372,285.430664 310.111420,272.263763 
	C310.044067,264.482483 310.099091,256.700104 310.099091,248.272186 
	C319.025970,248.483444 328.058441,245.767014 334.887573,252.870636 
	C340.355865,258.558746 339.772125,265.862366 337.671448,273.377136 
M317.908417,273.216553 
	C318.500916,274.162994 318.925446,275.740509 319.713959,275.950317 
	C323.873199,277.057098 329.896423,273.253845 330.974854,269.115326 
	C333.551697,259.226471 328.558319,253.452316 317.903870,254.504730 
	C317.903870,260.394836 317.903870,266.331451 317.908417,273.216553 
z"/>
<path fill="#EFF4F6" opacity="1.000000" stroke="none" 
	d="
M263.868927,248.808197 
	C270.871918,252.950592 271.629089,256.911621 267.154114,264.262634 
	C270.622620,267.358459 273.075775,270.692566 271.058777,275.767151 
	C269.087036,280.727936 265.516388,282.904602 260.336365,282.868835 
	C256.027679,282.839111 251.718689,282.862762 247.071747,282.862762 
	C247.071747,271.256165 247.071747,260.014496 247.071747,248.626892 
	C252.673065,248.626892 258.088928,248.626892 263.868927,248.808197 
M263.049072,274.875793 
	C263.444061,273.157623 264.448944,270.071045 264.139648,269.933167 
	C261.073639,268.566681 257.790161,267.688202 254.164734,266.544342 
	C254.164734,270.512268 254.164734,273.091095 254.164734,276.136383 
	C257.113007,275.797089 259.705261,275.498749 263.049072,274.875793 
M253.808319,257.554626 
	C253.160065,261.315216 255.581787,261.820160 258.221008,261.219299 
	C260.003754,260.813477 261.571655,259.463806 263.235657,258.536316 
	C261.871857,256.989624 260.763062,254.670929 259.072815,254.112610 
	C257.370819,253.550415 253.775024,252.166046 253.808319,257.554626 
z"/>
<path fill="#EFF4F6" opacity="1.000000" stroke="none" 
	d="
M353.961487,248.106018 
	C364.277405,248.189468 369.344574,250.967697 371.771973,257.612854 
	C374.764618,265.805420 372.988983,274.383911 366.953918,279.326660 
	C360.681610,284.463715 353.112579,282.711212 345.932159,282.713074 
	C345.348206,282.713226 344.262054,281.411224 344.254944,280.705719 
	C344.146759,269.968506 344.179779,259.229889 344.179779,248.105911 
	C347.896759,248.105911 350.693359,248.105911 353.961487,248.106018 
M365.111816,261.973419 
	C363.490479,254.344009 360.481323,255.104660 352.183594,254.228607 
	C352.183594,261.463196 352.183594,268.670929 352.183594,275.856995 
	C362.129547,276.320435 365.244354,273.092529 365.111816,261.973419 
z"/>
<path fill="#E7F0F2" opacity="1.000000" stroke="none" 
	d="
M303.353577,271.306396 
	C302.355194,281.709625 295.052124,283.954773 288.980682,283.578583 
	C280.025604,283.023712 276.165985,278.174042 276.262115,268.642975 
	C276.328949,262.015900 276.274994,255.387604 276.274994,248.425995 
	C278.899750,248.425995 281.104126,248.425995 283.832062,248.425995 
	C283.832062,255.249847 283.869720,261.863861 283.817963,268.477142 
	C283.786926,272.445679 284.299896,275.911530 289.394562,276.067322 
	C293.586151,276.195496 295.948456,273.875702 296.136475,268.645050 
	C296.374420,262.024994 296.193970,255.389877 296.193970,248.427017 
	C298.747314,248.427017 300.810944,248.427017 303.415710,248.427017 
	C303.415710,255.969421 303.415710,263.423492 303.353577,271.306396 
z"/>
<path fill="#EC3636" opacity="1.000000" stroke="none" 
	d="
M95.567932,248.441513 
	C100.172935,248.275833 104.332901,248.128845 108.491837,248.153961 
	C115.658890,248.197220 119.451424,253.935898 117.298080,260.745575 
	C116.723129,262.563782 117.062790,265.129944 117.939713,266.870453 
	C122.128059,275.183411 117.751205,282.692474 108.331352,282.939087 
	C94.075294,283.312317 94.066566,283.312286 94.055023,269.127899 
	C94.050415,263.468170 94.037361,257.807159 94.160561,252.149582 
	C94.186928,250.939194 94.786766,249.741302 95.567932,248.441513 
M111.620384,268.666534 
	C111.328568,268.470490 111.036743,268.274445 110.350212,268.012421 
	C110.350212,268.012421 109.986633,267.845215 109.479897,267.549957 
	C108.917725,267.398712 108.355553,267.247467 107.030144,267.148560 
	C105.755821,267.131378 104.481499,267.114197 102.445488,267.196350 
	C99.143219,270.125275 99.095169,272.592285 102.892906,275.915405 
	C103.297508,275.987762 103.702110,276.060120 104.531197,276.408112 
	C105.318756,276.316284 106.106308,276.224487 107.558685,275.982300 
	C108.009438,275.926117 108.460197,275.869934 109.441048,276.171356 
	C110.620895,275.098083 111.800743,274.024780 113.042709,272.304199 
	C113.032417,271.871063 113.022118,271.437897 113.196671,270.591614 
	C112.783577,270.069794 112.370491,269.547974 112.000114,268.998444 
	C112.000114,268.998444 111.986671,269.047546 111.620384,268.666534 
M102.372299,261.560638 
	C104.712433,263.641449 106.938034,263.591736 109.591309,260.913513 
	C110.127884,260.288055 110.664467,259.662628 111.670937,258.759583 
	C111.429840,257.845642 111.188744,256.931671 110.504631,255.838959 
	C110.226936,255.650208 110.050713,255.392166 109.637146,254.453217 
	C107.430420,254.233246 105.223686,254.013275 102.543655,253.921890 
	C102.543655,253.921890 102.063797,254.023270 101.445778,254.372650 
	C99.388222,256.780060 99.276932,259.008484 102.001106,260.998749 
	C102.001106,260.998749 102.028763,260.947205 102.372299,261.560638 
z"/>
<path fill="#339AB8" opacity="1.000000" stroke="none" 
	d="
M317.187134,227.804977 
	C317.895477,229.154251 318.603821,230.503525 319.312164,231.852783 
	C317.896423,232.541000 316.542908,233.505066 315.048004,233.842087 
	C313.460388,234.199982 311.738708,233.982681 310.075562,233.982895 
	C280.131317,233.986664 250.186981,234.032867 220.242966,233.952881 
	C212.387329,233.931900 204.532761,233.516205 194.850815,233.227249 
	C197.574570,234.458542 199.186722,235.793152 200.827515,235.829376 
	C210.471710,236.042175 220.122696,235.931152 229.771149,235.980469 
	C231.925995,235.991470 234.079773,236.207138 236.597717,236.573730 
	C236.961365,236.818863 236.826157,237.052109 236.826157,237.052124 
	C232.053360,237.378693 227.283691,237.912308 222.507065,237.984024 
	C215.042419,238.096115 207.568039,237.706116 200.107773,237.904282 
	C196.168381,238.008926 194.112152,236.325363 193.536148,232.727386 
	C192.965439,229.162552 192.729385,225.544159 192.346542,221.949249 
	C192.771896,221.850937 193.197235,221.752609 193.622574,221.654282 
	C194.732590,223.534134 196.147903,225.302338 196.885162,227.318497 
	C198.177292,230.852005 200.641296,231.127808 203.930267,231.117310 
	C239.868225,231.002411 275.806702,231.059906 311.744873,230.979294 
	C313.472839,230.975418 315.198914,230.121887 316.925323,229.111481 
	C316.940338,228.381760 316.955902,228.204575 317.025574,227.971954 
	C317.079651,227.916519 317.187134,227.804977 317.187134,227.804977 
z"/>
<path fill="#EFF4F6" opacity="1.000000" stroke="none" 
	d="
M375.772095,248.127762 
	C380.864624,247.086624 383.583801,249.473953 385.569702,253.400375 
	C386.891296,256.013275 388.485748,258.488129 389.900482,260.925507 
	C395.221161,256.161041 394.859192,245.227402 406.361145,248.576660 
	C403.767548,253.017838 401.492859,257.720032 398.471893,261.880310 
	C394.751526,267.003845 393.198608,272.436157 393.946045,278.643280 
	C394.270721,281.339661 393.674622,282.992554 390.287659,282.996124 
	C386.984619,282.999603 385.515686,281.863770 386.125946,278.654205 
	C388.045593,268.558319 381.442963,261.591888 377.208344,253.722824 
	C376.295776,252.027039 375.977631,250.011383 375.772095,248.127762 
z"/>
<path fill="#339AB8" opacity="1.000000" stroke="none" 
	d="
M169.430634,148.288101 
	C168.297134,147.755157 167.706253,147.167343 166.982803,146.460663 
	C168.521713,145.908401 170.192566,145.099182 171.864731,145.096481 
	C214.857330,145.027451 257.850098,145.041061 300.842804,145.046478 
	C303.664764,145.046844 306.678101,144.672318 307.979553,148.599152 
	C305.756012,148.639999 303.459656,148.029236 301.162567,148.026443 
	C258.760437,147.974762 216.358170,147.993607 173.955933,148.011032 
	C172.628342,148.011566 171.300797,148.155914 169.430634,148.288101 
z"/>
<path fill="#EC3636" opacity="1.000000" stroke="none" 
	d="
M154.693512,166.780457 
	C153.568268,171.813538 152.341263,177.121567 151.113953,182.429504 
	C150.751984,183.995041 150.389145,185.560379 149.970551,187.802307 
	C148.495239,191.507217 146.900208,194.467453 145.694519,197.578552 
	C143.364227,203.591446 141.253494,209.689438 139.051727,215.752151 
	C136.669632,215.268585 134.287521,214.785004 130.220123,213.959320 
	C138.652023,197.731796 146.621826,182.393570 154.693512,166.780457 
z"/>
<path fill="#FA3333" opacity="1.000000" stroke="none" 
	d="
M136.022552,248.302185 
	C138.058716,248.242264 140.094910,248.182358 142.794159,248.454315 
	C145.639969,249.479874 147.822708,250.173538 150.005447,250.867218 
	C150.005447,250.867233 150.118881,250.874054 150.200165,251.205933 
	C150.857574,251.981171 151.433670,252.424515 152.009766,252.867874 
	C152.009766,252.867874 152.124817,252.883316 152.115036,253.332306 
	C152.748291,258.493622 153.794769,263.193817 153.937119,267.921204 
	C154.136749,274.550537 149.523544,279.710999 143.178558,280.847870 
	C135.077011,282.299500 128.429550,279.126587 125.875603,272.588989 
	C122.346642,263.555573 125.349022,254.942261 133.673004,250.108047 
	C134.520065,249.616089 135.242355,248.909271 136.022552,248.302185 
M149.132843,262.281189 
	C149.037766,261.848816 148.942688,261.416412 149.236221,260.478210 
	C148.690399,254.084518 142.901169,250.546585 136.345215,252.506943 
	C130.332138,254.304977 129.007950,259.291992 128.313004,264.496429 
	C127.575920,270.016449 130.502304,275.195068 134.926025,277.386292 
	C138.771515,279.291077 142.674408,279.023041 145.618195,276.310974 
	C147.454926,274.618835 147.968597,271.490601 149.132370,268.359283 
	C149.176971,267.928741 149.221588,267.498199 149.759338,266.747772 
	C149.594864,265.475891 149.430389,264.204041 149.132843,262.281189 
z"/>
<path fill="#339AB8" opacity="1.000000" stroke="none" 
	d="
M201.802948,226.556290 
	C213.210175,226.206879 224.679398,226.051254 236.148849,226.031601 
	C260.759491,225.989441 285.370361,225.985962 309.980774,226.069809 
	C312.211853,226.077408 314.440338,226.831512 316.928589,227.521957 
	C317.187134,227.804977 317.079651,227.916519 316.559814,227.952850 
	C278.084656,227.933334 240.129318,227.877487 202.173981,227.821625 
	C202.070999,227.484985 201.968033,227.148331 201.802948,226.556290 
z"/>
<path fill="#C73B3D" opacity="1.000000" stroke="none" 
	d="
M155.174622,205.737625 
	C154.089737,212.492020 153.144089,219.274460 151.795166,225.975708 
	C151.544266,227.222107 149.671555,228.142059 148.547363,229.212677 
	C148.054489,228.874191 147.561615,228.535721 147.068741,228.197235 
	C148.142853,223.557083 149.216980,218.916916 150.291092,214.276749 
	C150.022903,214.150497 149.754700,214.024246 149.486511,213.897995 
	C147.311874,217.152222 145.137238,220.406448 142.962616,223.660675 
	C142.276398,223.388138 141.590195,223.115585 140.903976,222.843048 
	C140.903976,220.580368 140.903976,218.317673 141.015060,215.523209 
	C142.386978,213.633957 143.967361,212.455719 144.848190,210.885132 
	C147.400284,206.334564 149.671341,201.626373 152.025452,197.355881 
	C151.774338,199.207474 151.550476,200.683243 151.304077,202.563019 
	C151.276184,203.237122 151.270844,203.507202 150.988770,203.857819 
	C150.818329,205.160614 150.924591,206.382858 150.832794,207.826996 
	C151.127411,208.291870 151.620117,208.534866 152.282043,208.531403 
	C152.550522,207.495071 152.649811,206.705215 152.899796,205.690811 
	C153.141418,205.310593 153.232361,205.154922 153.534241,205.036194 
	C154.221664,205.294647 154.698135,205.516144 155.174622,205.737625 
z"/>
<path fill="#D6383A" opacity="1.000000" stroke="none" 
	d="
M135.644287,248.236389 
	C135.242355,248.909271 134.520065,249.616089 133.673004,250.108047 
	C125.349022,254.942261 122.346642,263.555573 125.875603,272.588989 
	C128.429550,279.126587 135.077011,282.299500 143.178558,280.847870 
	C149.523544,279.710999 154.136749,274.550537 153.937119,267.921204 
	C153.794769,263.193817 152.748291,258.493622 152.118164,253.390259 
	C159.321625,259.433350 156.963684,274.282349 150.769089,279.820923 
	C144.560516,285.371979 131.809250,284.278473 126.320274,277.797577 
	C120.035667,270.377258 121.017929,256.422272 128.473297,250.829361 
	C130.347580,249.423309 132.981308,249.029572 135.644287,248.236389 
z"/>
<path fill="#C73B3D" opacity="1.000000" stroke="none" 
	d="
M164.074051,187.057663 
	C164.100418,186.894180 164.097351,186.718857 164.157578,186.568985 
	C165.029648,184.398376 162.590881,180.055893 166.653168,180.252457 
	C171.167725,180.470901 169.102661,184.945404 169.063766,187.460281 
	C168.979996,192.881149 168.691101,192.876678 172.417999,191.466125 
	C174.275589,192.191208 176.421600,192.830368 177.084045,194.191528 
	C177.725357,195.509277 177.434555,198.329483 176.459747,199.092026 
	C175.470993,199.865494 173.142273,198.947678 171.405624,198.729294 
	C170.926575,198.669052 170.248276,198.190033 170.031494,198.364105 
	C168.279587,199.770813 165.869461,201.868515 164.797928,198.755753 
	C163.951477,196.296906 165.318405,193.076126 165.702347,190.193726 
	C166.205200,190.166656 166.708038,190.139603 167.210892,190.112549 
	C166.328094,189.755798 165.445297,189.399048 164.361298,188.610413 
	C164.131409,187.804901 164.102722,187.431274 164.074051,187.057663 
M167.215652,194.177933 
	C166.542130,195.339325 165.868607,196.500702 165.195084,197.662079 
	C165.884293,197.879791 166.573517,198.097519 167.262726,198.315231 
	C167.377945,197.086273 167.493149,195.857315 167.215652,194.177933 
z"/>
<path fill="#54343C" opacity="1.000000" stroke="none" 
	d="
M152.052704,196.980042 
	C149.671341,201.626373 147.400284,206.334564 144.848190,210.885132 
	C143.967361,212.455719 142.386978,213.633957 140.890625,215.106445 
	C140.306885,215.373367 139.958664,215.525269 139.331085,215.714661 
	C141.253494,209.689438 143.364227,203.591446 145.694519,197.578552 
	C146.900208,194.467453 148.495239,191.507217 149.989166,188.213364 
	C151.166870,188.525711 152.269775,189.103531 153.561539,190.206940 
	C153.491943,191.839005 153.233475,192.945480 152.988113,194.026382 
	C153.001221,194.000809 153.027466,193.949692 152.758545,194.169296 
	C152.320953,195.277130 152.152267,196.165359 152.000351,197.034714 
	C152.017105,197.015839 152.052689,196.980042 152.052704,196.980042 
z"/>
<path fill="#888392" opacity="1.000000" stroke="none" 
	d="
M202.236206,228.095612 
	C240.129318,227.877487 278.084656,227.933334 316.505737,228.008286 
	C316.955902,228.204575 316.940338,228.381760 316.869324,228.820251 
	C280.578857,229.054184 244.343781,229.036423 208.108795,228.972794 
	C206.171661,228.969406 204.235199,228.579559 202.236206,228.095612 
z"/>
<path fill="#339AB8" opacity="1.000000" stroke="none" 
	d="
M325.463745,229.062927 
	C322.301208,225.883942 325.634857,226.264969 326.954620,226.166611 
	C330.205444,225.924347 333.486481,226.087234 337.960632,226.087234 
	C336.539276,223.215179 335.749512,221.492020 334.851044,219.827560 
	C332.042664,214.624969 332.614349,213.648468 338.339233,212.917648 
	C339.898834,212.718536 341.325256,211.476074 342.903076,210.343140 
	C343.827271,211.349106 344.661194,212.724396 345.871643,214.720642 
	C341.952759,214.947983 339.168396,215.109528 335.267822,215.335815 
	C336.881836,218.288483 338.177338,220.655609 339.470184,223.024200 
	C341.581512,226.892410 340.767731,228.631744 336.421844,228.928467 
	C332.937958,229.166367 329.428375,229.028595 325.463745,229.062927 
z"/>
<path fill="#339AB8" opacity="1.000000" stroke="none" 
	d="
M188.098602,196.366608 
	C189.803177,198.000824 191.601776,200.000137 193.710678,202.507584 
	C194.423538,203.915649 194.755280,204.855881 195.240524,205.708801 
	C197.775284,210.164307 200.349030,214.597641 202.909241,219.038696 
	C201.965088,220.102295 201.020950,221.165894 200.052002,222.579010 
	C197.084106,216.996063 194.047028,211.107590 191.240784,205.111084 
	C189.985931,202.429718 189.194397,199.531509 188.098602,196.366608 
z"/>
<path fill="#339AB8" opacity="1.000000" stroke="none" 
	d="
M342.743530,208.700668 
	C339.837158,204.969650 336.565094,201.078766 334.035065,196.753769 
	C329.464996,188.941376 325.338348,180.869568 320.967804,172.552322 
	C322.813538,174.780914 324.969086,177.216782 326.576752,179.972290 
	C332.059296,189.369186 337.348999,198.878616 342.743530,208.700668 
z"/>
<path fill="#7CB6C9" opacity="1.000000" stroke="none" 
	d="
M237.237396,237.344391 
	C236.826157,237.052109 236.961365,236.818863 236.992249,236.686386 
	C266.691284,236.579514 296.359436,236.605133 326.728882,236.731537 
	C327.791565,236.903091 328.153015,236.973846 328.514435,237.044586 
	C327.257202,237.367813 326.000336,237.971527 324.742706,237.973038 
	C296.364746,238.007095 267.986725,237.977234 239.608704,237.942291 
	C238.955231,237.941483 238.301987,237.742981 237.237396,237.344391 
z"/>
<path fill="#54343C" opacity="1.000000" stroke="none" 
	d="
M155.440033,205.561462 
	C154.698135,205.516144 154.221664,205.294647 153.478378,204.802979 
	C153.211563,204.532791 153.124191,204.059814 153.348267,203.865326 
	C153.547729,202.950699 153.523117,202.230576 153.498505,201.510452 
	C153.013962,201.692276 152.529419,201.874084 151.865051,202.079987 
	C151.685242,202.104095 151.326599,202.158997 151.326599,202.158997 
	C151.550476,200.683243 151.774338,199.207474 152.025452,197.355881 
	C152.052689,196.980042 152.017105,197.015839 152.218384,196.780319 
	C152.622269,195.679764 152.824875,194.814728 153.027466,193.949692 
	C153.027466,193.949692 153.001221,194.000809 153.177780,193.847305 
	C153.786362,193.167526 154.218384,192.641251 154.650406,192.114975 
	C156.112534,191.427429 157.574646,190.739883 159.358124,189.915985 
	C158.354813,194.981537 157.030136,200.183411 155.440033,205.561462 
z"/>
<path fill="#C73B3D" opacity="1.000000" stroke="none" 
	d="
M172.305069,189.512909 
	C171.919098,187.563049 171.666946,185.556717 172.048248,183.679001 
	C172.314301,182.368790 173.448090,181.234787 174.194290,180.022079 
	C175.419586,181.106415 177.040283,181.983719 177.749557,183.338257 
	C178.356598,184.497528 177.918961,186.203812 177.938873,188.044250 
	C176.192719,188.783997 174.451050,189.147675 172.305069,189.512909 
z"/>
<path fill="#339AB8" opacity="1.000000" stroke="none" 
	d="
M275.024536,171.647003 
	C274.825409,171.936661 274.562561,171.870834 274.552582,171.777832 
	C273.951508,166.180664 271.617493,161.744232 266.325867,159.185043 
	C266.300049,159.172562 267.068451,157.517929 267.719910,156.740845 
	C269.348267,158.234619 270.489105,160.080795 272.140900,160.913940 
	C277.076019,163.403061 277.925201,166.738754 275.024536,171.647003 
z"/>
<path fill="#339AB8" opacity="1.000000" stroke="none" 
	d="
M310.260498,156.850586 
	C309.314117,154.449600 308.682281,152.085068 308.043579,149.337799 
	C309.331390,150.850021 310.736115,152.685226 311.825836,154.691528 
	C312.037811,155.081772 311.023651,156.137985 310.260498,156.850586 
z"/>
<path fill="#D6383A" opacity="1.000000" stroke="none" 
	d="
M149.863068,250.550186 
	C147.822708,250.173538 145.639969,249.479874 143.223328,248.545013 
	C145.233185,248.946930 147.476944,249.590042 149.863068,250.550186 
z"/>
<path fill="#339AB8" opacity="1.000000" stroke="none" 
	d="
M328.641846,236.858551 
	C328.153015,236.973846 327.791565,236.903091 327.192932,236.691101 
	C326.976379,235.591019 326.997009,234.632156 327.032593,233.309753 
	C327.621429,234.188324 328.195343,235.430420 328.641846,236.858551 
z"/>
<path fill="#54343C" opacity="1.000000" stroke="none" 
	d="
M163.739868,187.100845 
	C164.102722,187.431274 164.131409,187.804901 164.082214,188.448761 
	C162.831299,188.984711 161.658264,189.250443 160.133148,189.610413 
	C160.989258,188.851135 162.197464,187.997589 163.739868,187.100845 
z"/>
<path fill="#339AB8" opacity="1.000000" stroke="none" 
	d="
M200.157379,224.196045 
	C200.782318,224.581635 201.232361,225.132980 201.712814,225.969574 
	C201.156296,225.623810 200.569382,224.992813 200.157379,224.196045 
z"/>
<path fill="#339AB8" opacity="1.000000" stroke="none" 
	d="
M326.996277,232.653885 
	C326.408966,232.180634 325.754395,231.398804 325.051788,230.293671 
	C325.645477,230.762024 326.287231,231.553665 326.996277,232.653885 
z"/>
<path fill="#D6383A" opacity="1.000000" stroke="none" 
	d="
M151.946045,252.589905 
	C151.433670,252.424515 150.857574,251.981171 150.206985,251.262360 
	C150.715790,251.428558 151.299072,251.870239 151.946045,252.589905 
z"/>
<path fill="#4C6971" opacity="1.000000" stroke="none" 
	d="
M202.936142,219.048553 
	C200.349030,214.597641 197.775284,210.164307 195.240524,205.708801 
	C194.755280,204.855881 194.423538,203.915649 194.018646,202.671646 
	C195.713623,202.176178 197.410919,202.024750 199.754333,202.151581 
	C202.621445,204.582901 204.842438,206.735977 207.063431,208.889038 
	C207.063431,208.889038 207.052063,208.942062 207.127655,209.310226 
	C208.237915,214.494659 211.687317,215.072845 215.899399,215.062820 
	C250.689514,214.979996 285.480347,215.100616 320.269745,214.922775 
	C325.026123,214.898453 327.233551,216.763458 328.343628,221.978378 
	C325.715210,221.978378 323.473755,221.975998 321.232269,221.978729 
	C288.772980,222.018356 256.313568,222.116669 223.854477,222.050613 
	C217.237183,222.037140 210.621124,221.406235 204.004501,221.059967 
	C203.951096,220.869247 203.897690,220.678513 203.862717,220.094330 
	C203.576889,219.505753 203.272629,219.310608 202.968369,219.115479 
	C202.968369,219.115479 202.963058,219.058426 202.936142,219.048553 
z"/>
<path fill="#339AB8" opacity="1.000000" stroke="none" 
	d="
M204.134094,221.407501 
	C210.621124,221.406235 217.237183,222.037140 223.854477,222.050613 
	C256.313568,222.116669 288.772980,222.018356 321.232269,221.978729 
	C323.473755,221.975998 325.715210,221.978378 328.343628,221.978378 
	C327.233551,216.763458 325.026123,214.898453 320.269745,214.922775 
	C285.480347,215.100616 250.689514,214.979996 215.899399,215.062820 
	C211.687317,215.072845 208.237915,214.494659 207.154358,209.314835 
	C210.536926,212.797043 214.978577,213.089600 219.792496,213.072662 
	C253.425980,212.954254 287.060669,213.105942 320.693390,212.906174 
	C325.622131,212.876892 328.479492,214.714951 330.457153,218.921585 
	C331.891479,221.972504 331.420410,223.725021 327.791473,223.933487 
	C326.960968,223.981201 326.127228,223.987427 325.294983,223.987640 
	C287.165466,223.997421 249.035843,224.042114 210.906769,223.915253 
	C208.690033,223.907883 206.477936,222.507248 204.134094,221.407501 
z"/>
<path fill="#339AB8" opacity="1.000000" stroke="none" 
	d="
M207.014893,208.538116 
	C204.842438,206.735977 202.621445,204.582901 200.185455,202.167236 
	C200.165405,201.369751 200.360352,200.834854 200.783417,200.125061 
	C202.996460,202.695862 204.981400,205.441528 207.014893,208.538116 
z"/>
<path fill="#339AB8" opacity="1.000000" stroke="none" 
	d="
M183.729965,171.340439 
	C183.198608,171.016113 182.604599,170.346466 181.954193,169.339890 
	C182.487640,169.667023 183.077484,170.331070 183.729965,171.340439 
z"/>
<path fill="#339AB8" opacity="1.000000" stroke="none" 
	d="
M170.971542,151.588028 
	C170.507263,151.126785 169.982559,150.303696 169.423920,149.093414 
	C169.897018,149.546219 170.404083,150.386200 170.971542,151.588028 
z"/>
<path fill="#339AB8" opacity="1.000000" stroke="none" 
	d="
M200.850189,198.928406 
	C200.422012,198.648483 199.935303,198.091095 199.413971,197.250214 
	C199.850128,197.528122 200.320892,198.089523 200.850189,198.928406 
z"/>
<path fill="#339AB8" opacity="1.000000" stroke="none" 
	d="
M185.819687,175.021698 
	C185.396286,174.718765 184.924347,174.129013 184.415985,173.253265 
	C184.843445,173.556473 185.307297,174.145660 185.819687,175.021698 
z"/>
<path fill="#339AB8" opacity="1.000000" stroke="none" 
	d="
M173.767014,155.906891 
	C173.449524,155.730179 173.056442,155.246887 172.594330,154.448685 
	C172.914001,154.622620 173.302719,155.111450 173.767014,155.906891 
z"/>
<path fill="#339AB8" opacity="1.000000" stroke="none" 
	d="
M174.921448,157.681946 
	C174.625443,157.521210 174.235809,157.085739 173.796722,156.353333 
	C174.107452,156.506668 174.467636,156.956940 174.921448,157.681946 
z"/>
<path fill="#339AB8" opacity="1.000000" stroke="none" 
	d="
M178.796173,163.897705 
	C178.512253,163.701416 178.160400,163.205017 177.765839,162.398071 
	C178.058167,162.590881 178.393204,163.094238 178.796173,163.897705 
z"/>
<path fill="#339AB8" opacity="1.000000" stroke="none" 
	d="
M179.925934,165.680847 
	C179.632874,165.517441 179.249619,165.077560 178.814972,164.341309 
	C179.120956,164.498093 179.478333,164.951218 179.925934,165.680847 
z"/>
<path fill="#339AB8" opacity="1.000000" stroke="none" 
	d="
M203.072662,219.262817 
	C203.272629,219.310608 203.576889,219.505753 203.781555,219.808533 
	C203.493835,219.767273 203.325485,219.598602 203.072662,219.262817 
z"/>
<path fill="#339AB8" opacity="1.000000" stroke="none" 
	d="
M172.716339,154.118225 
	C172.574783,154.105606 172.300308,153.853439 171.961029,153.317764 
	C172.125290,153.315720 172.354355,153.597198 172.716339,154.118225 
z"/>
<path fill="#339AB8" opacity="1.000000" stroke="none" 
	d="
M176.781860,160.369202 
	C176.617279,160.352219 176.273743,160.053528 175.827393,159.421722 
	C176.017365,159.421570 176.310135,159.754532 176.781860,160.369202 
z"/>
<path fill="#339AB8" opacity="1.000000" stroke="none" 
	d="
M181.783356,168.367142 
	C181.618668,168.350449 181.274506,168.052414 180.827332,167.421112 
	C181.017517,167.420502 181.310684,167.753159 181.783356,168.367142 
z"/>
<path fill="#339AB8" opacity="1.000000" stroke="none" 
	d="
M198.763275,195.308167 
	C198.588776,195.266388 198.213043,194.895630 197.742905,194.120468 
	C197.953033,194.137100 198.257538,194.558136 198.763275,195.308167 
z"/>
<path fill="#C73B3D" opacity="1.000000" stroke="none" 
	d="
M154.698029,191.866150 
	C154.218384,192.641251 153.786362,193.167526 153.164673,193.872879 
	C153.233475,192.945480 153.491943,191.839005 153.809631,190.400528 
	C154.161133,190.584793 154.453384,191.101059 154.698029,191.866150 
z"/>
<path fill="#506972" opacity="1.000000" stroke="none" 
	d="
M169.340698,257.434204 
	C174.303040,251.994064 181.509415,252.429184 183.943085,258.842468 
	C185.430588,262.762421 185.053253,267.940887 183.931961,272.130890 
	C182.983902,275.673584 178.880692,276.382904 175.095352,276.129822 
	C170.079437,275.794464 165.961273,269.087036 167.277252,262.899048 
	C167.652359,261.135223 168.491562,259.470093 169.340698,257.434204 
z"/>
<path fill="#506972" opacity="1.000000" stroke="none" 
	d="
M317.906128,272.742310 
	C317.903870,266.331451 317.903870,260.394836 317.903870,254.504730 
	C328.558319,253.452316 333.551697,259.226471 330.974854,269.115326 
	C329.896423,273.253845 323.873199,277.057098 319.713959,275.950317 
	C318.925446,275.740509 318.500916,274.162994 317.906128,272.742310 
z"/>
<path fill="#506972" opacity="1.000000" stroke="none" 
	d="
M262.673279,275.038086 
	C259.705261,275.498749 257.113007,275.797089 254.164734,276.136383 
	C254.164734,273.091095 254.164734,270.512268 254.164734,266.544342 
	C257.790161,267.688202 261.073639,268.566681 264.139648,269.933167 
	C264.448944,270.071045 263.444061,273.157623 262.673279,275.038086 
z"/>
<path fill="#4C6971" opacity="1.000000" stroke="none" 
	d="
M253.810913,257.089081 
	C253.775024,252.166046 257.370819,253.550415 259.072815,254.112610 
	C260.763062,254.670929 261.871857,256.989624 263.235657,258.536316 
	C261.571655,259.463806 260.003754,260.813477 258.221008,261.219299 
	C255.581787,261.820160 253.160065,261.315216 253.810913,257.089081 
z"/>
<path fill="#4C6971" opacity="1.000000" stroke="none" 
	d="
M365.123016,262.406982 
	C365.244354,273.092529 362.129547,276.320435 352.183594,275.856995 
	C352.183594,268.670929 352.183594,261.463196 352.183594,254.228607 
	C360.481323,255.104660 363.490479,254.344009 365.123016,262.406982 
z"/>
<path fill="#506972" opacity="1.000000" stroke="none" 
	d="
M109.986633,267.845215 
	C109.986633,267.845215 110.350212,268.012421 110.683685,268.284302 
	C111.340332,268.719971 111.663506,268.883759 111.986671,269.047546 
	C111.986671,269.047546 112.000114,268.998444 112.025124,269.305176 
	C112.370697,270.076202 112.691254,270.540466 113.011826,271.004761 
	C113.022118,271.437897 113.032417,271.871063 112.723953,272.759216 
	C111.240440,274.080719 110.075691,274.947235 108.910950,275.813751 
	C108.460197,275.869934 108.009438,275.926117 106.882919,275.979431 
	C105.507011,276.028534 104.806862,276.080505 104.106712,276.132446 
	C103.702110,276.060120 103.297508,275.987762 102.522697,275.484253 
	C102.504051,272.401093 102.855614,269.749054 103.207184,267.097046 
	C104.481499,267.114197 105.755821,267.131378 107.618195,267.350769 
	C108.799713,267.650391 109.393173,267.747803 109.986633,267.845215 
z"/>
<path fill="#4C6971" opacity="1.000000" stroke="none" 
	d="
M109.975952,255.064819 
	C110.050713,255.392166 110.226936,255.650208 110.744057,256.307373 
	C111.056007,257.529572 111.128525,258.283386 111.201042,259.037201 
	C110.664467,259.662628 110.127884,260.288055 108.880547,260.986053 
	C106.122780,261.021484 104.075768,260.984344 102.028763,260.947205 
	C102.028763,260.947205 102.001106,260.998749 102.012970,260.550934 
	C102.037819,258.076508 102.050812,256.049896 102.063797,254.023270 
	C102.063797,254.023270 102.543655,253.921890 103.175552,253.929291 
	C105.863625,254.312729 107.919785,254.688782 109.975952,255.064819 
z"/>
<path fill="#D6383A" opacity="1.000000" stroke="none" 
	d="
M102.826340,267.146698 
	C102.855614,269.749054 102.504051,272.401093 102.214310,275.472565 
	C99.095169,272.592285 99.143219,270.125275 102.826340,267.146698 
z"/>
<path fill="#D6383A" opacity="1.000000" stroke="none" 
	d="
M101.754791,254.197968 
	C102.050812,256.049896 102.037819,258.076508 102.038780,260.537231 
	C99.276932,259.008484 99.388222,256.780060 101.754791,254.197968 
z"/>
<path fill="#D6383A" opacity="1.000000" stroke="none" 
	d="
M102.200531,261.253906 
	C104.075768,260.984344 106.122780,261.021484 108.603828,261.130463 
	C106.938034,263.591736 104.712433,263.641449 102.200531,261.253906 
z"/>
<path fill="#D6383A" opacity="1.000000" stroke="none" 
	d="
M109.175995,275.992554 
	C110.075691,274.947235 111.240440,274.080719 112.692886,273.082855 
	C111.800743,274.024780 110.620895,275.098083 109.175995,275.992554 
z"/>
<path fill="#D6383A" opacity="1.000000" stroke="none" 
	d="
M109.806549,254.759018 
	C107.919785,254.688782 105.863625,254.312729 103.412209,253.864990 
	C105.223686,254.013275 107.430420,254.233246 109.806549,254.759018 
z"/>
<path fill="#D6383A" opacity="1.000000" stroke="none" 
	d="
M111.435989,258.898376 
	C111.128525,258.283386 111.056007,257.529572 110.965561,256.396729 
	C111.188744,256.931671 111.429840,257.845642 111.435989,258.898376 
z"/>
<path fill="#D6383A" opacity="1.000000" stroke="none" 
	d="
M113.104248,270.798187 
	C112.691254,270.540466 112.370697,270.076202 112.003769,269.319031 
	C112.370491,269.547974 112.783577,270.069794 113.104248,270.798187 
z"/>
<path fill="#D6383A" opacity="1.000000" stroke="none" 
	d="
M104.318954,276.270264 
	C104.806862,276.080505 105.507011,276.028534 106.550514,276.054626 
	C106.106308,276.224487 105.318756,276.316284 104.318954,276.270264 
z"/>
<path fill="#D6383A" opacity="1.000000" stroke="none" 
	d="
M109.733261,267.697571 
	C109.393173,267.747803 108.799713,267.650391 107.999817,267.324585 
	C108.355553,267.247467 108.917725,267.398712 109.733261,267.697571 
z"/>
<path fill="#D6383A" opacity="1.000000" stroke="none" 
	d="
M111.803528,268.857056 
	C111.663506,268.883759 111.340332,268.719971 110.881042,268.317291 
	C111.036743,268.274445 111.328568,268.470490 111.803528,268.857056 
z"/>
<path fill="#4C6971" opacity="1.000000" stroke="none" 
	d="
M149.266190,267.067657 
	C149.221588,267.498199 149.176971,267.928741 148.806396,268.867004 
	C145.536880,275.502960 142.709396,277.338318 136.787949,275.849335 
	C131.705444,274.571289 130.815506,270.241547 130.926514,265.655090 
	C130.966614,263.998596 130.872665,262.298187 131.212051,260.696716 
	C132.643890,253.940247 140.513763,251.432251 145.513641,256.190552 
	C146.894730,257.504913 147.750687,259.371063 148.847610,260.984039 
	C148.942688,261.416412 149.037766,261.848816 149.109116,263.014771 
	C149.145660,264.854797 149.205917,265.961243 149.266190,267.067657 
z"/>
<path fill="#D6383A" opacity="1.000000" stroke="none" 
	d="
M149.041916,260.731140 
	C147.750687,259.371063 146.894730,257.504913 145.513641,256.190552 
	C140.513763,251.432251 132.643890,253.940247 131.212051,260.696716 
	C130.872665,262.298187 130.966614,263.998596 130.926514,265.655090 
	C130.815506,270.241547 131.705444,274.571289 136.787949,275.849335 
	C142.709396,277.338318 145.536880,275.502960 148.778214,269.190796 
	C147.968597,271.490601 147.454926,274.618835 145.618195,276.310974 
	C142.674408,279.023041 138.771515,279.291077 134.926025,277.386292 
	C130.502304,275.195068 127.575920,270.016449 128.313004,264.496429 
	C129.007950,259.291992 130.332138,254.304977 136.345215,252.506943 
	C142.901169,250.546585 148.690399,254.084518 149.041916,260.731140 
z"/>
<path fill="#D6383A" opacity="1.000000" stroke="none" 
	d="
M149.512756,266.907715 
	C149.205917,265.961243 149.145660,264.854797 149.175644,263.340271 
	C149.430389,264.204041 149.594864,265.475891 149.512756,266.907715 
z"/>
<path fill="#54343C" opacity="1.000000" stroke="none" 
	d="
M151.030869,207.605118 
	C150.924591,206.382858 150.818329,205.160614 151.036667,204.002472 
	C151.361282,204.066605 151.440796,204.374023 151.373901,204.695999 
	C151.235977,205.884125 151.164963,206.750275 151.073853,207.622223 
	C151.053757,207.628036 151.030869,207.605118 151.030869,207.605118 
z"/>
<path fill="#506972" opacity="1.000000" stroke="none" 
	d="
M151.093933,207.616425 
	C151.164963,206.750275 151.235977,205.884125 151.513794,204.832428 
	C152.063431,205.069702 152.406265,205.492538 152.749100,205.915359 
	C152.649811,206.705215 152.550522,207.495071 152.123322,208.328888 
	C151.561584,208.120697 151.327759,207.868561 151.093933,207.616425 
z"/>
<path fill="#4C6971" opacity="1.000000" stroke="none" 
	d="
M152.899796,205.690811 
	C152.406265,205.492538 152.063431,205.069702 151.580688,204.510452 
	C151.440796,204.374023 151.361282,204.066605 151.313385,203.921936 
	C151.270844,203.507202 151.276184,203.237122 151.304062,202.563019 
	C151.326599,202.158997 151.685242,202.104095 152.076630,202.276825 
	C152.686737,202.986313 152.905457,203.523071 153.124191,204.059814 
	C153.124191,204.059814 153.211563,204.532791 153.267426,204.766022 
	C153.232361,205.154922 153.141418,205.310593 152.899796,205.690811 
z"/>
<path fill="#888392" opacity="1.000000" stroke="none" 
	d="
M151.073853,207.622223 
	C151.327759,207.868561 151.561584,208.120697 151.954117,208.575348 
	C151.620117,208.534866 151.127411,208.291870 150.832794,207.826996 
	C151.030869,207.605118 151.053757,207.628036 151.073853,207.622223 
z"/>
<path fill="#EC3636" opacity="1.000000" stroke="none" 
	d="
M167.412018,194.403137 
	C167.493149,195.857315 167.377945,197.086273 167.262726,198.315231 
	C166.573517,198.097519 165.884293,197.879791 165.195084,197.662079 
	C165.868607,196.500702 166.542130,195.339325 167.412018,194.403137 
z"/>
<path fill="#C73B3D" opacity="1.000000" stroke="none" 
	d="
M152.758545,194.169296 
	C152.824875,194.814728 152.622269,195.679764 152.201630,196.799194 
	C152.152267,196.165359 152.320953,195.277130 152.758545,194.169296 
z"/>
<path fill="#888392" opacity="1.000000" stroke="none" 
	d="
M153.348267,203.865326 
	C152.905457,203.523071 152.686737,202.986313 152.256439,202.252731 
	C152.529419,201.874084 153.013962,201.692276 153.498505,201.510452 
	C153.523117,202.230576 153.547729,202.950699 153.348267,203.865326 
z"/>
</svg>